<?xml version="1.0" encoding="UTF-8" standalone="no"?>
<!-- Created with Inkscape (http://www.inkscape.org/) -->

<svg
   xmlns:dc="http://purl.org/dc/elements/1.1/"
   xmlns:cc="http://creativecommons.org/ns#"
   xmlns:rdf="http://www.w3.org/1999/02/22-rdf-syntax-ns#"
   xmlns:svg="http://www.w3.org/2000/svg"
   xmlns="http://www.w3.org/2000/svg"
   xmlns:sodipodi="http://sodipodi.sourceforge.net/DTD/sodipodi-0.dtd"
   xmlns:inkscape="http://www.inkscape.org/namespaces/inkscape"
   id="svg2985"
   version="1.1"
   inkscape:version="0.48.2 r9819"
   width="191"
   height="89"
   sodipodi:docname="sd120627 copy.png">
  <metadata
     id="metadata2991">
    <rdf:RDF>
      <cc:Work
         rdf:about="">
        <dc:format>image/svg+xml</dc:format>
        <dc:type
           rdf:resource="http://purl.org/dc/dcmitype/StillImage" />
        <dc:title></dc:title>
      </cc:Work>
    </rdf:RDF>
  </metadata>
  <defs
     id="defs2989" />
  <sodipodi:namedview
     pagecolor="#ffffff"
     bordercolor="#666666"
     borderopacity="1"
     objecttolerance="10"
     gridtolerance="10"
     guidetolerance="10"
     inkscape:pageopacity="0"
     inkscape:pageshadow="2"
     inkscape:window-width="1484"
     inkscape:window-height="858"
     id="namedview2987"
     showgrid="false"
     inkscape:zoom="8.4852814"
     inkscape:cx="71.323138"
     inkscape:cy="28.020196"
     inkscape:window-x="0"
     inkscape:window-y="22"
     inkscape:window-maximized="0"
     inkscape:current-layer="svg2985" />
  <path
     style="fill:#000000"
     d="M 15.701197,75.25 C 14.729508,70.9875 13.307744,63.409543 12.541721,58.410095 11.775698,53.410647 10.477236,46.885647 9.6562508,43.910095 8.8352654,40.934543 7.8786651,36.798132 7.5304722,34.718072 6.9321038,31.143494 7.0242931,30.967993 9.2119431,31.517058 10.484945,31.836561 18.495531,30.967749 27.013246,29.586364 35.530961,28.204979 47.45,26.59034 53.5,25.998278 c 12.54596,-1.227767 22.100266,-2.633195 23.411974,-3.443875 0.493278,-0.304863 6.866287,-1.249984 14.162241,-2.10027 7.295954,-0.850286 13.646265,-1.78138 14.111805,-2.069098 0.46554,-0.287719 9.72663,-1.811152 20.58021,-3.385407 10.85357,-1.574256 24.34952,-3.840082 29.991,-5.0351702 5.64147,-1.1950881 10.8645,-1.9398534 11.60673,-1.655034 2.46189,0.9447165 7.29874,25.8224952 7.88355,40.5481912 l 0.25249,6.357615 -3,0.256668 c -4.14969,0.355031 -15.76745,2.310092 -30,5.048464 -6.6,1.269855 -21.675,3.933242 -33.5,5.91864 -11.825,1.985398 -28.475,4.974357 -37,6.64213 -8.525,1.667774 -21.779602,4.13607 -29.454672,5.485101 -7.675069,1.349031 -15.550069,2.895996 -17.5,3.437699 C 17.943701,83.976808 17.640643,83.757758 15.701197,75.25 z M 35,77.958112 c 6.325,-1.163417 21.85,-4.326201 34.5,-7.02841 21.770623,-4.650495 33.61842,-6.868069 45,-8.422728 2.75,-0.375635 11.75,-2.051749 20,-3.724699 8.25,-1.672949 20.175,-3.789879 26.5,-4.704289 l 11.5,-1.662563 -0.33186,-5.957711 c -0.35827,-6.431919 -4.61469,-35.237594 -5.30948,-35.932388 -0.23248,-0.232482 -4.23329,0.402442 -8.89068,1.410942 -8.99388,1.947513 -13.5232,2.702125 -54.46798,9.074697 -14.3,2.225626 -26.780128,4.286628 -27.733619,4.580003 -0.95349,0.293376 -3.65349,0.714013 -6,0.934749 C 54.844688,27.929398 36.967024,30.227244 27.5,31.958284 21.45,33.064524 14.985016,33.976462 13.133369,33.984814 10.117507,33.998418 9.8348767,34.234428 10.420729,36.25 11.963935,41.559265 16,62.346958 16,64.985953 c 0,1.586116 0.430468,4.016064 0.956595,5.399884 0.526128,1.38382 1.066186,4.373359 1.200129,6.64342 0.22752,3.855979 0.411206,4.091768 2.793405,3.58577 C 22.352558,80.31714 28.675,79.121528 35,77.958112 z M 21.682427,72.614802 C 20.993118,70.818492 23.703573,66.660228 25.624092,67 c 1.998417,0.353553 1.79087,0.458185 1.11161,-2 -0.307381,-1.112387 -0.440234,-2 0.08562,-2 0.525854,0 1.257564,1.606956 1.626023,3.571014 0.36846,1.964057 0.918644,4.21916 1.222632,5.01134 0.375735,0.979149 -0.884273,1.958011 -0.957485,0.860813 -0.123497,-1.850798 -1.100158,0.01901 -2.170357,0.488659 -1.649457,0.72385 -4.232306,1.317956 -4.859708,-0.317024 z m 4.876443,-1.047481 c 1.519885,-1.121774 1.679065,-1.698504 0.733512,-2.657619 -0.952735,-0.9664 -1.533158,-0.954765 -2.75,0.05512 C 22.918859,70.31223 22.430278,73 23.80887,73 c 0.444879,0 1.682379,-0.644706 2.75,-1.432679 z m 5.476314,-1.50158 c -0.569351,-1.063842 -1.004728,-2.526342 -0.967504,-3.25 0.03722,-0.723657 0.555991,-0.303241 1.152815,0.934259 0.596823,1.2375 1.691367,2.25 2.432319,2.25 1.647983,0 1.676399,-0.513562 0.183466,-3.315741 -1.051972,-1.974513 -1.003959,-2.052468 0.5,-0.811814 2.105415,1.73681 2.296272,5.471444 0.08193,5.520566 -0.905809,0.02009 -2.225293,0.835981 -3.383026,-1.32727 z m 7.993057,-0.531712 C 38.683218,67.913375 38.995669,63.814044 40.5,63.344584 c 0.55,-0.17164 1.675,0.133924 2.5,0.679031 1.272589,0.840844 1.120982,1.305172 -1,3.062701 0,0 -0.722281,0.459043 -0.653205,0.867168 0.06908,0.408126 0.903205,0.606422 0.903205,0.606422 0,0 3.574612,-0.07159 0.855005,1.383897 -1.396359,0.747309 -2.205957,0.639484 -3.076764,-0.409774 z M 42,65 c 0,-0.55 -0.198442,-1 -0.440983,-1 -0.242541,0 -0.719098,0.45 -1.059017,1 -0.339919,0.55 -0.141476,1 0.440983,1 C 41.523442,66 42,65.55 42,65 z m 13.527538,0.0784 c -0.577783,-2.166723 -0.270884,-2.792773 -2.369237,-1.324612 -1.164664,0.814884 -1.432997,0.337205 -0.515909,-0.816573 0.628315,-0.790477 2.159447,0.163959 1.633998,-3.437231 -0.279263,-1.913938 0.457699,-1.994289 0.848495,-0.0042 0.331767,1.689475 0.362292,2.214084 2.125115,1.841789 1.987221,-0.419687 2.044942,-0.344177 0.49423,0.646538 -1.235092,0.789073 -2.055407,-0.159976 -1.141592,3.568803 C 56.932938,66.900674 56.951606,68 56.62746,68 56.09735,66.947409 55.883346,66.412698 55.527538,65.0784 z m 5.433699,-0.625122 C 59.38215,62.550594 60.547088,59.767 62.746976,60.186293 c 2.198502,0.419029 2.874392,4.361272 0.879009,5.126972 -0.813867,0.312311 -2.013004,-0.07468 -2.664748,-0.859987 z M 64,63.166667 C 64,61.864593 62.811227,60.998634 61.844208,61.596285 60.809989,62.235467 61.701763,64 63.059017,64 63.576558,64 64,63.625 64,63.166667 z M 72.118715,58.55718 C 70.816924,53.387298 70.695088,51.361755 71.749325,52.415992 72.847522,53.514189 74.842728,63 73.975522,63 73.569571,63 72.734008,61.000731 72.118715,58.55718 z m 4.03733,2.049743 C 75.344364,58.900765 77.616273,56 78.942935,56 c 0.553138,0 1.645465,1.2375 2.427395,2.75 1.361192,2.632976 0.657308,3.837163 -0.461286,1.64859 -0.50488,-0.987818 -2.999486,3.894224 -4.752999,0.208333 z M 80,58.940983 C 80,58.423442 79.55,58 79,58 c -0.55,0 -1.589256,0.701558 -1.589256,1.559017 0,0.857459 1.039256,1.280902 1.589256,0.940983 0.55,-0.339919 1,-1.041476 1,-1.559017 z m 3.666667,1.39235 C 83.3,59.966667 83,58.896767 83,57.955778 c 0,-2.092282 2.578592,-4.446648 3.405229,-3.109121 0.320806,0.519075 -0.08913,1.201803 -0.910973,1.517173 C 83.659941,57.067723 83.503289,60 85.3,60 c 0.715,0 1.84,-0.54 2.5,-1.2 0.802821,-0.802821 1.2,-0.838232 1.2,-0.106989 0,1.73574 -4.005869,2.967787 -5.333333,1.640322 z m 7.629257,-1.535999 C 89.863879,56.989276 89.088431,52.063381 90.134109,51.417116 90.610349,51.122783 91,51.838848 91,53.008371 c 0,1.747882 -0.05563,2.568178 2.242158,1.414771 1.868888,-0.938113 2.476662,-0.0022 0.763865,0.818922 -3.683706,1.765915 0.931677,0.858946 2.099508,1.836883 1.091147,0.913722 -1.847441,0.568677 -3.038269,0.308873 -1.166072,-0.254404 0.168016,1.315894 -0.155533,1.809458 -0.323549,0.493565 -1.050662,0.31359 -1.615805,-0.399944 z M 23.289921,57.523349 c -4.512914,-3.228014 -3.916839,-13.219535 1.008012,-16.896467 4.265792,-3.184873 12.93967,-2.2474 10.827458,1.170232 -0.592336,0.958419 -1.470311,1.022246 -3.491429,0.253818 -5.054012,-1.921532 -8.148767,1.835056 -7.457641,9.052506 0.432838,4.520135 2.665793,4.78929 8.191648,0.987402 3.413222,-2.348359 4.660492,-2.761473 5.453288,-1.806212 0.75296,0.907262 -0.0087,2.108788 -2.847482,4.492116 -4.73119,3.972074 -8.674597,4.899078 -11.683854,2.746605 z M 114.5,55 c -0.34913,-1.1 -0.62592,-3.155112 -2.31739,-2.078947 -0.78166,0.497313 -1.18923,-0.255649 -0.60939,-0.524409 2.18127,-1.011035 0.8767,-1.784477 0.63651,-3.421052 C 111.88508,46.76364 112.17194,46 113.32748,46 c 0.85497,0 1.87986,0.526472 2.27755,1.169939 0.48618,0.786654 0.1779,0.960742 -0.94099,0.531385 -1.09654,-0.420783 -1.98973,-0.07154 -1.66404,0.862285 0.88388,2.534303 0.46499,3.125566 2.25,2.405229 1.24764,-0.503483 1.70494,0.626831 0.95052,0.790999 -2.24248,0.487979 -1.22541,1.004876 -0.78988,2.740163 0.7452,2.969096 0.002,3.376909 -0.91064,0.5 z m -8.7636,-0.196179 c -0.25638,-0.717102 -0.0701,-2.074564 0.41398,-3.016583 1.19987,-2.334991 4.03778,-1.107502 3.65249,1.579824 -0.3409,2.37775 -3.34994,3.4409 -4.06647,1.436759 z M 109,52.940983 C 109,52.423442 108.55,52 108,52 c -0.55,0 -1,0.701558 -1,1.559017 0,0.857459 0.45,1.280902 1,0.940983 0.55,-0.339919 1,-1.041476 1,-1.559017 z m 16.11592,-0.251394 c -0.77438,-1.252982 -0.38484,-4.982482 2.40435,-4.982482 0.52006,0 2.69,0.621362 1.19491,-2.089256 C 128.2884,44.844088 128.22792,44 128.76801,44 c 0.5401,0 1.23173,1.2375 1.53696,2.75 0.30523,1.5125 0.83085,3.4625 1.16803,4.333333 0.35969,0.928962 -0.32969,2.352799 -0.67997,1.677567 -0.82902,-1.598086 -0.95838,0.508882 -3.43017,0.753784 -1.26246,0.125083 -1.85042,-0.183516 -2.24694,-0.825095 z M 130,50.383369 C 130,49.622516 129.1,49 128,49 c -1.30059,0 -2,0.666667 -2,1.90638 0,1.414051 0.51651,1.771311 2,1.383369 1.1,-0.287656 2,-1.145528 2,-1.90638 z M 46.638562,51.25 c -0.272918,-0.9625 -1.058046,-4.374121 -1.74473,-7.58138 -1.055966,-4.932048 -1.028387,-5.967934 0.178826,-6.716817 1.13831,-0.706138 1.68139,0.357502 2.681918,5.252623 0.690016,3.375932 1.40177,6.285253 1.581674,6.465157 0.179904,0.179905 3.169742,-0.82797 6.644084,-2.239722 5.012961,-2.036948 6.484133,-2.296371 7.126685,-1.2567 1.084364,1.754537 0.532354,2.130274 -7.628231,5.192316 -8.324534,3.12356 -8.208634,3.111963 -8.840226,0.884523 z M 134.32271,50.39859 C 133.37977,48.197453 134.76589,46 136.96862,46 138.08588,46 139,46.638196 139,47.418213 c 0,0.780016 0.069,1.294857 0.34961,2.027341 0.33643,0.878203 -0.3026,2.432219 -0.86587,0.838014 -0.5285,-1.495775 -2.97541,2.882646 -4.16103,0.115022 z m 3.4343,-2.974916 c -0.98419,-0.984183 -2.27524,0.12521 -2.27524,1.948152 0,1.526473 0.7739,0.801075 1.20871,0.366267 0.92977,-0.929755 1.4097,-1.971251 1.06653,-2.314419 z m 6.3613,1.826326 c -0.0749,-1.42456 -0.76032,-2.255618 -1.86831,-2.265313 -1.40075,-0.01226 -1.47145,-0.191687 -0.35428,-0.899075 0.76764,-0.486069 1.11926,-1.604179 0.78138,-2.484687 C 142.33922,42.720416 142.49865,42 143.03138,42 143.56412,42 144,42.6375 144,43.416667 c 0,0.779166 0.23716,1.801788 0.70195,1.75 1.33926,-0.14922 2.6602,-0.565181 2.7663,0.133047 0.081,0.532933 -2.16135,0.464317 -2.68025,1.007956 0.0432,1.105708 0.28415,1.699535 0.19286,2.112035 0.68603,2.342436 -0.77016,2.587122 -0.86255,0.830295 z m 5.28065,-2.79657 c -0.35154,-1.400614 -0.38201,-2.803713 -0.0677,-3.117999 0.31428,-0.314286 0.87203,0.62627 1.23943,2.090124 0.81797,3.259046 3.03752,2.824963 2.65123,-0.518508 -0.24876,-2.153167 -0.16083,-2.216062 0.83368,-0.596308 C 155.52947,46.711244 154.55079,49 152.05044,49 c -1.32232,0 -2.2315,-0.873208 -2.65148,-2.54657 z M 71.5,47.207831 C 68.066565,46.481577 67,44.899437 67,40.532543 c 0,-5.143841 2.213007,-7.48317 7.786245,-8.230698 3.328674,-0.446469 4.195857,-0.165485 5.577616,1.807252 2.44042,3.484187 2.034573,7.14864 -1.113861,10.057219 -3.177388,2.935328 -4.954615,3.632807 -7.75,3.041515 z m 6.50235,-5.937947 c 1.186387,-1.824512 1.952008,-2.953826 -0.0382,-4.5 -3.018337,-2.444101 -5.627152,-2.213835 -7.512165,0.663058 -3.65428,5.577136 3.372635,9.148069 7.550369,3.836942 z M 157,44.2 c 0,-2.538037 0.33037,-2.8 3.53114,-2.8 2.871,0 3.64125,0.438692 4.1201,2.34657 0.32392,1.290614 0.30991,2.625614 -0.0311,2.966667 C 164.27904,47.05429 164,46.358333 164,45.166667 164,43.975 163.55,43 163,43 c -0.55,0 -1,0.54 -1,1.2 0,0.933333 -0.26667,0.933333 -1.2,0 -1.83307,-1.833069 -3.09375,-1.431299 -2.51025,0.8 0.28766,1.1 0.11514,2 -0.38337,2 C 157.40787,47 157,45.74 157,44.2 z M 90.070226,42.131218 c -0.918196,-1.715665 -0.5572,-1.872762 4.405938,-1.91736 2.973344,-0.02672 6.206906,-0.496741 7.185686,-1.044496 1.48361,-0.830272 1.11918,-1.107125 -2.191121,-1.664533 C 92.464927,36.32515 90.5,35.43089 90.5,33.422152 c 0,-2.637787 10.06308,-6.659537 14.46192,-5.779767 2.16203,0.432406 3.03798,1.127234 2.82653,2.2421 -0.23046,1.215117 -1.85741,1.739438 -6.56437,2.115515 -3.441884,0.275 -6.267616,0.95 -6.279405,1.5 -0.01179,0.55 2.354152,1.349387 5.257645,1.776415 6.30798,0.927739 9.02687,2.975256 6.76197,5.092237 -4.0052,3.743618 -15.208301,4.912443 -16.894064,1.762566 z M 117.67007,40.25 C 116.52718,38.336529 114.90765,27.702112 115.65691,27.030827 116.49282,26.281903 128.94896,23 130.95552,23 131.52998,23 132,23.9 132,25 c 0,1.266794 -0.66667,2 -1.8185,2 -3.26622,0 -12.25483,3.072329 -11.68519,3.994029 0.31149,0.504007 2.35676,0.263454 4.65536,-0.547542 5.60594,-1.977888 8.07892,-1.882341 7.65942,0.295934 -0.20548,1.066986 -2.37774,2.476535 -5.60378,3.636214 -7.43078,2.671179 -5.74657,3.177156 2.30139,0.691394 7.67606,-2.370894 10.84335,-2.626172 10.24315,-0.825581 -0.22815,0.684446 -4.20315,2.449544 -8.83333,3.92244 -9.26019,2.945734 -10.58651,3.191356 -11.24845,2.083112 z m 25.73188,-4.408644 c -1.05389,-1.705238 -3.34014,-13.236927 -2.74226,-13.831804 0.28166,-0.280254 3.73596,-0.496996 7.67621,-0.481649 16.42747,0.06398 18.37728,8.237995 3.20985,13.456355 -6.83412,2.351285 -7.19675,2.38945 -8.1438,0.857098 z m 14.96092,-7.825742 c 1.52527,-1.487237 -0.19636,-2.720943 -4.64868,-3.331201 -7.88435,-1.080671 -10.5107,1.090258 -7.69158,6.357826 1.00308,1.874282 1.12239,1.871662 6.25,-0.137259 2.87506,-1.126409 5.61568,-2.426624 6.09026,-2.889366 z"
     id="path2995"
     inkscape:connector-curvature="0"
     sodipodi:nodetypes="sssssssssssssscsssssssssssscsssssssssssssssssssssssssssssssssssssssszcssssssscsssssssccssssssssssssssssssssssssssssssssssssssscssssssscsssssssssscssssssssssssssssssssssssssssssssssssssscsscssssssscccssssssssssssssccscsscsssssssssssssssssssssssssssssssssssssssssss" />
</svg>
