<?xml version="1.0" encoding="UTF-8" standalone="no"?>
<!-- Created with Inkscape (http://www.inkscape.org/) -->

<svg
   xmlns:dc="http://purl.org/dc/elements/1.1/"
   xmlns:cc="http://creativecommons.org/ns#"
   xmlns:rdf="http://www.w3.org/1999/02/22-rdf-syntax-ns#"
   xmlns:svg="http://www.w3.org/2000/svg"
   xmlns="http://www.w3.org/2000/svg"
   xmlns:sodipodi="http://sodipodi.sourceforge.net/DTD/sodipodi-0.dtd"
   xmlns:inkscape="http://www.inkscape.org/namespaces/inkscape"
   width="616"
   height="616"
   id="svg3284"
   version="1.1"
   inkscape:version="0.48.1 r9760"
   sodipodi:docname="sceaux.svg">
  <defs
     id="defs3286" />
  <sodipodi:namedview
     id="base"
     pagecolor="#ffffff"
     bordercolor="#666666"
     borderopacity="1.0"
     inkscape:pageopacity="0.0"
     inkscape:pageshadow="2"
     inkscape:zoom="0.7"
     inkscape:cx="-241.93723"
     inkscape:cy="514.6211"
     inkscape:document-units="px"
     inkscape:current-layer="layer2"
     showgrid="false"
     fit-margin-top="0"
     fit-margin-left="0"
     fit-margin-right="0"
     fit-margin-bottom="0"
     inkscape:window-width="1920"
     inkscape:window-height="1125"
     inkscape:window-x="0"
     inkscape:window-y="25"
     inkscape:window-maximized="1" />
  <metadata
     id="metadata3289">
    <rdf:RDF>
      <cc:Work
         rdf:about="">
        <dc:format>image/svg+xml</dc:format>
        <dc:type
           rdf:resource="http://purl.org/dc/dcmitype/StillImage" />
        <dc:title />
      </cc:Work>
    </rdf:RDF>
  </metadata>
  <g
     inkscape:groupmode="layer"
     id="layer2"
     inkscape:label="Calque"
     style="display:inline">
    <rect
       style="fill:#ffffff;fill-opacity:1;stroke:none"
       id="rect3768"
       width="614"
       height="614"
       x="1"
       y="1" />
  </g>
  <g
     inkscape:label="Calque 1"
     inkscape:groupmode="layer"
     id="layer1"
     transform="translate(-67,-224.36218)"
     style="display:inline">
    <path
       style="fill:#d1d1d1;fill-opacity:1"
       d="m 67,532.36218 0,-308 308,0 308,0 0,308 0,308 -308,0 -308,0 0,-308 z m 339.30845,298.99117 c 24.98474,-3.50484 21.74581,-2.91485 40.94447,-7.45836 9.60866,-2.27396 28.94427,-8.18588 34.24708,-10.47114 1.1,-0.47405 5.6,-2.36468 10,-4.2014 32.24191,-13.45897 65.67038,-35.58784 91.89681,-60.83355 38.11307,-36.68785 67.12549,-84.58052 80.58494,-133.02672 0.68761,-2.475 1.59985,-5.625 2.02719,-7 0.42735,-1.375 1.32685,-5.2 1.99889,-8.5 0.67205,-3.3 1.58756,-7.35 2.03447,-9 0.4469,-1.65 1.27966,-6.15 1.85056,-10 0.5709,-3.85 1.60985,-10.6 2.30877,-15 0.79809,-5.02428 1.27188,-18.04306 1.27376,-35 0.003,-25.63893 -0.26845,-29.42378 -3.5838,-50 -1.20799,-7.49721 -4.74828,-24.16675 -5.84047,-27.5 -0.45054,-1.375 -1.38163,-4.525 -2.06909,-7 -1.59832,-5.75434 -4.86638,-15.91145 -5.95238,-18.5 -0.4615,-1.1 -2.32094,-5.825 -4.1321,-10.5 C 649.85552,406.9288 640.48689,387.77351 635.04528,378.81644 632.82038,375.15417 631,371.9455 631,371.68606 631,370.86627 620.00125,355.25658 612.10071,344.86376 602.99348,332.88356 575.84655,305.273 564,295.94153 c -4.675,-3.68248 -9.24832,-7.30634 -10.16293,-8.05304 -3.58552,-2.92725 -20.67073,-14.09882 -28.29527,-18.50154 -12.49429,-7.21471 -27.00105,-14.2499 -39.0418,-18.93367 -6.05,-2.35341 -11.9,-4.64201 -13,-5.08579 -8.57998,-3.46143 -28.4769,-8.65881 -45.5,-11.8853 -9.36247,-1.77453 -12.04942,-2.1377 -27,-3.64941 -32.72018,-3.30844 -67.69993,-0.45537 -104,8.48262 -7.71103,1.89865 -25.74532,7.74491 -33.91943,10.99582 -59.60506,23.70539 -110.61857,65.96428 -144.82606,119.97189 -8.80744,13.9054 -17.617,30.42015 -21.646338,40.57907 -1.527028,3.85 -3.3608,8.35 -4.075049,10 -0.714248,1.65 -1.846808,4.575 -2.516799,6.5 -0.669991,1.925 -1.595629,4.4 -2.056973,5.5 -1.175633,2.80311 -6.50596,20.98759 -7.914373,27 -0.644191,2.75 -1.569558,6.575 -2.056373,8.5 -0.486814,1.925 -1.148,5.3 -1.469302,7.5 -0.321302,2.2 -1.213398,8.05 -1.982437,13 -0.769038,4.95 -1.935252,17.1 -2.591586,27 -1.025644,15.47059 -0.958725,20.66993 0.476213,37 1.590897,18.10494 2.69071,27.36801 4.036852,34 0.334912,1.65 1.110889,5.475 1.724394,8.5 1.293989,6.38026 3.161578,13.684 6.776133,26.5 0.916373,3.24915 5.60566,16.60044 7.112279,20.25 0.510867,1.2375 1.334755,3.2625 1.830862,4.5 1.724403,4.30139 16.075617,33.27769 18.696607,37.75 15.66579,26.73127 41.39047,57.58736 63.40138,76.04833 3.575,2.99842 6.725,5.70242 7,6.00889 1.02956,1.14739 16.72414,12.7385 22.5,16.6172 19.78779,13.28823 50.7235,28.66393 69.99084,34.78692 9.6588,3.06948 18.57409,5.60648 26.00916,7.40137 14.91689,3.60105 16.46963,3.88181 39,7.05166 8.62513,1.21349 57.30048,1.2703 65.80845,0.0768 z M 354,824.28879 c -12.50157,-0.63331 -18.57573,-1.34341 -33,-3.8579 -12.26134,-2.13744 -29.48464,-6.41552 -38.5,-9.56299 -10.66051,-3.72182 -16.30107,-5.80711 -19.5,-7.20907 -1.925,-0.84366 -5.075,-2.20527 -7,-3.02581 -9.82128,-4.18639 -24.10174,-11.60252 -37,-19.21486 -12.3117,-7.26616 -32.94637,-23.1008 -44.32248,-34.0122 -3.75236,-3.59908 -7.41331,-6.87479 -8.13543,-7.27935 C 164.75971,739.12804 146.529,718.40913 140.35217,710.36218 134.75426,703.06942 121,682.76921 121,681.79989 c 0,-0.34593 -0.95163,-1.96541 -2.11473,-3.59883 C 116.85855,675.35479 103,648.04365 103,646.89584 c 0,-0.3055 -0.87333,-2.46305 -1.94073,-4.79456 -4.763666,-10.40522 -13.661102,-39.99401 -16.159498,-53.7391 -3.610145,-19.86144 -5.871115,-42.38645 -5.887517,-58.65462 -0.0214,-21.2266 4.368411,-53.79127 9.887171,-73.34538 0.543293,-1.925 1.398454,-5.075 1.900357,-7 1.359172,-5.21297 8.060854,-25.05441 9.626207,-28.5 0.74961,-1.65 2.34872,-5.25 3.55358,-8 14.75274,-33.67207 35.57294,-64.14026 61.50079,-90 27.15493,-27.08358 56.49379,-46.87945 94.51964,-63.77541 5.47001,-2.43048 24.3087,-9.06378 30.5,-10.73938 1.65,-0.44655 5.475,-1.48454 8.5,-2.30665 29.75198,-8.08576 74.96718,-11.97699 100.5,-8.64906 4.4,0.5735 11.6,1.51516 16,2.09258 22.95903,3.01299 44.54725,8.81479 69.75322,18.74609 24.45442,9.63517 56.20486,28.89799 78.38961,47.55855 10.00273,8.41373 30.59418,29.58772 39.24976,40.36016 18.50681,23.03295 36.53372,53.94296 45.03117,77.21312 0.70295,1.925 1.66778,4.4 2.14407,5.5 5.08277,11.73867 12.58254,42.26989 16.08958,65.5 1.73126,11.4676 1.76424,59.40213 0.0495,72 -9.26169,68.04549 -37.03486,124.6618 -84.67668,172.61559 C 548.64934,772.07401 509.905,795.8748 464.6318,810.78895 430.18457,822.13674 395.3728,826.38464 354,824.28879 z m 41.46529,-6.0153 c 5.85904,-2.75407 12.12058,-9.65961 13.54063,-14.9333 2.22378,-8.2585 -1.331,-15.73682 -8.25592,-17.36825 -3.49969,-0.82448 -3.45734,-1.74857 0.25,-5.45591 3.90435,-3.90435 4.03696,-8.28832 0.35398,-11.7016 -5.10691,-4.73292 -17.99904,-2.22101 -21.42142,4.17377 -1.92804,3.60257 -0.58046,3.78163 3.03595,0.4034 4.83107,-4.5129 10.72031,-3.73595 12.42637,1.63938 1.42409,4.48692 -0.40536,7.37832 -7.62237,12.04698 -4.81897,3.11738 -6.63678,4.81995 -5.91588,5.54085 0.7209,0.7209 1.81383,0.53409 3.55684,-0.60798 4.17322,-2.73439 9.32238,-2.14294 12.68532,1.45711 2.46816,2.64217 2.90121,3.92074 2.90121,8.56574 0,5.83553 -0.95269,8.3721 -4.46272,11.88213 -3.72634,3.72634 -6.21848,3.9393 -10.59629,0.90548 -3.22954,-2.23808 -4.18997,-2.49736 -5.43209,-1.4665 -1.81413,1.5056 -1.95537,4.16092 -0.3089,5.80739 1.91278,1.91278 10.35043,1.42157 15.26529,-0.88869 z m -40.73409,-2.03886 c 9.41882,-5.28445 12.55733,-9.73463 12.66914,-17.96388 0.0888,-6.535 -1.54446,-9.10802 -7.04365,-11.09655 -1.84618,-0.66759 -3.35112,-1.4609 -3.34431,-1.76291 0.007,-0.30201 1.59874,-1.57684 3.53762,-2.83297 6.15266,-3.98604 6.80001,-10.4066 1.43444,-14.22722 -5.4939,-3.912 -18.64464,-1.64397 -20.64156,3.55993 -0.96956,2.52663 0.37358,2.79322 2.77957,0.5517 2.88004,-2.68317 9.56003,-2.88705 11.4855,-0.35055 3.78493,4.98602 0.1878,11.00264 -8.61998,14.41793 -3.29338,1.27704 -5.98797,2.88668 -5.98797,3.57698 0,1.52752 0.31475,1.53899 4.88398,0.17809 9.66487,-2.87861 16.734,8.63017 11.03894,17.97177 -2.48089,4.0694 -3.76451,5.4149 -6.62781,6.94729 -3.4458,1.84414 -5.47033,1.38045 -9.02795,-2.06774 -2.68953,-2.60679 -3.65797,-3.01889 -5.04761,-2.14787 -0.94575,0.59279 -1.86441,2.05246 -2.04146,3.24371 -0.76783,5.1661 12.59395,6.46781 20.55311,2.00229 z m 79.36445,-3.9374 c 10.8846,-7.39159 15.2566,-15.43 15.19359,-27.93505 -0.0796,-15.79746 -6.11916,-24.08175 -17.44361,-23.92691 -9.11667,0.12465 -14.76819,5.06562 -15.59122,13.63096 -1.12927,11.75259 8.37531,19.64151 17.79525,14.77027 3.59418,-1.85862 3.95025,-3.9421 0.52688,-3.08289 C 429.6898,786.98011 423,778.4131 423,770.92862 c 0,-5.38847 4.60861,-8.80507 9.39798,-6.96722 4.39714,1.68735 8.5799,13.58078 8.58143,24.40078 0.001,9.63855 -2.72324,15.78617 -9.82697,22.17304 -2.83384,2.54786 -5.15244,4.90124 -5.15244,5.22972 0,1.40581 2.4891,0.33962 8.09565,-3.46771 z M 315.75,808.24709 c -3.4636,-2.58412 -3.48941,-4.75497 -0.20814,-17.50669 1.39803,-5.43302 2.93102,-11.67822 3.40665,-13.87822 0.47563,-2.2 1.51904,-6.37472 2.31869,-9.27716 0.79966,-2.90244 1.17917,-5.41889 0.84336,-5.59211 -1.18697,-0.61228 -15.11056,0.6055 -15.11056,1.3216 0,0.39965 1.125,1.23922 2.5,1.86572 3.21223,1.46358 3.20801,3.65917 -0.0329,17.14347 -5.20954,21.67514 -5.10617,21.43274 -9.31797,21.85184 -1.73203,0.17235 -3.14915,0.64445 -3.14915,1.04911 0,1.0124 6.10444,3.13414 9.071,3.15284 1.33595,0.008 3.104,0.45153 3.929,0.98469 0.825,0.53316 3.075,0.96201 5,0.95301 l 3.5,-0.0164 -2.75,-2.05173 z m 66.32219,-44.07179 c 7.22668,-5.0751 7.64489,-5.22444 19.40682,-6.93019 13.96963,-2.02591 17.72693,-2.66876 22.52099,-3.8532 34.677,-8.56738 65.1023,-23.39364 92.53516,-45.09241 14.43796,-11.42009 33.17336,-31.41068 43.52155,-46.43732 1.89381,-2.75 3.6697,-5.225 3.94642,-5.5 1.47459,-1.46543 8.03235,-12.83799 12.97417,-22.5 12.07361,-23.60575 18.39781,-43.64928 23.19096,-73.5 2.54313,-15.83808 1.24613,-59.77604 -2.14013,-72.5 -0.43912,-1.65 -1.35797,-5.7 -2.04191,-9 -1.49824,-7.22908 -8.97345,-30.3509 -12.00405,-37.13011 -6.68758,-14.9596 -12.61651,-25.99604 -19.07323,-35.50399 L 561,400.47192 560.9847,390.16705 c -0.008,-5.66768 -0.34592,-10.81827 -0.75,-11.44576 -0.42313,-0.65707 -4.36363,-1.29317 -9.2921,-1.5 l -8.55742,-0.35911 -6.94259,-7.08916 c -23.64281,-24.14197 -55.0544,-43.75056 -88.17507,-55.04303 -12.00208,-4.0921 -12.67874,-4.26442 -30.26752,-7.70791 -30.20223,-5.91293 -52.815,-6.12367 -84,-0.78287 -11.72015,2.00722 -33.28051,7.90952 -40.5,11.08716 -1.1,0.48416 -4.025,1.70278 -6.5,2.70805 -9.35673,3.80041 -29.04662,14.30752 -37.64086,20.08628 -7.53058,5.06354 -23.64194,17.23308 -25.37455,19.16638 -0.28347,0.3163 -4.55847,4.44144 -9.5,9.16696 l -8.98459,8.59186 -8.48032,0.18846 c -4.66417,0.10365 -8.81912,0.52726 -9.23321,0.94135 -0.41409,0.41409 -1.05267,6.13795 -1.41906,12.71968 -0.60153,10.80563 -0.93107,12.3554 -3.39626,15.97178 -5.94433,8.72022 -15.50739,27.25035 -19.86655,38.49501 -1.81234,4.675 -3.65666,9.4 -4.09849,10.5 -1.52533,3.79756 -5.1046,16.58543 -7.90706,28.25 -2.28594,9.51469 -5.09905,35.88953 -5.09905,47.8071 0,13.69069 2.55283,33.49519 6.56663,50.9429 9.53996,41.46961 29.96491,78.16997 60.38905,108.50939 37.63407,37.52929 82.74069,59.68636 134.54432,66.09026 9.6643,1.19469 10.25177,1.41388 17.5,6.52952 4.125,2.91133 8.21693,5.31076 9.09317,5.33208 0.87624,0.0213 4.9168,-2.29534 8.97902,-5.14813 z M 369.5,758.1601 C 334.96576,733.54044 304.70037,704.73393 280.40756,673.36218 274.1829,665.32365 263,648.7487 263,647.56122 c 0,-0.73361 70.1421,-70.1019 101.78438,-100.6615 l 9.28,-8.96247 34.71781,34.6539 c 19.09479,19.05964 43.60531,43.29565 54.46781,53.8578 12.06687,11.73322 19.75,19.94675 19.75,21.11343 0,2.72298 -6.22934,11.74556 -22.30033,32.2998 -11.92884,15.25658 -30.20552,34.32015 -47.61269,49.66263 -12.09311,10.65873 -38.19886,30.86914 -39.79165,30.80569 -0.43743,-0.0174 -2.14533,-0.9941 -3.79533,-2.1704 z m 12.10844,-51.83915 c 1.50625,-0.57267 3.79502,-2.18108 5.08615,-3.57423 1.96147,-2.11647 3.12516,-2.49325 7.07646,-2.29124 2.60092,0.13298 5.17895,0.53759 5.72895,0.89915 2.27899,1.49817 9.57863,3.00755 14.54502,3.00755 5.45294,0 10.17986,-1.24366 15.45498,-4.06624 l 3,-1.60521 0.26075,-42.68776 0.26076,-42.68775 -3.46449,-5.14447 c -3.31353,-4.92031 -3.67347,-5.15249 -8.26075,-5.32852 -2.63795,-0.10123 -8.89968,-1.60065 -13.91496,-3.33205 -14.20355,-4.90342 -22.00769,-4.20296 -30.76881,2.76165 -2.13813,1.69969 -4.38813,3.08842 -5,3.08607 -0.61188,-0.002 -3.1375,-1.37279 -5.6125,-3.04542 -10.39805,-7.02709 -17.68445,-7.76195 -29.5,-2.97518 -9.65357,3.9109 -13.23498,5.02488 -16.15479,5.02488 -2.64354,0 -3.6384,0.54939 -4.52716,2.5 -0.6265,1.375 -1.51081,2.5 -1.96514,2.5 -0.45434,0 -1.55618,1.6875 -2.44853,3.75 -1.39529,3.22496 -1.64219,9.17527 -1.76342,42.49885 -0.0775,21.31187 0.16998,38.74937 0.55002,38.75 1.79724,0.003 2.13906,-4.2298 2.45506,-30.40155 0.34287,-28.39745 0.68312,-33.12993 2.30966,-32.12468 0.50838,0.3142 0.92884,-4.51681 0.97042,-11.14992 0.0805,-12.83968 0.28261,-13.28207 6.08048,-13.30739 3.91576,-0.0171 6.35302,-0.67111 16.48907,-4.42468 9.298,-3.44323 15.92686,-3.42469 23.05266,0.0645 9.59627,4.69884 8.89219,1.22414 9.30762,45.93395 0.2013,21.66459 0.0946,40.09739 -0.23708,40.96176 -0.54294,1.41489 -0.92793,1.40168 -3.86097,-0.1324 -5.91426,-3.09339 -6.71522,-3.41844 -8.42333,-3.41844 -0.93092,0 -3.15622,-0.52926 -4.94512,-1.17614 -3.56402,-1.28876 -9.83655,-0.2766 -20.45603,3.30088 -3.06162,1.03139 -7.57782,1.87526 -10.036,1.87526 -4.06766,0 -4.75833,0.37591 -7.68342,4.18178 -1.7677,2.29999 -3.214,4.53415 -3.214,4.96482 0,2.96068 10.84211,3.51404 19.25,0.9825 2.0625,-0.62101 5.4375,-1.63468 7.5,-2.25262 10.16759,-3.04626 20.32,-1.45276 22.19695,3.48398 1.79624,4.72448 13.48656,7.32621 20.66149,4.59831 z m -17.94177,-2.62544 C 363.3,703.32885 363,701.8056 363,700.31052 c 0,-4.67491 -3.96644,-6.40346 -14.74925,-6.42762 -9.87867,-0.0221 -11.00275,-0.83026 -5.1781,-3.72269 5.66415,-2.81272 14.03604,-2.32558 21.53438,1.25305 6.55412,3.12799 8.18618,5.66722 4.29635,6.68444 -1.7024,0.44518 -1.98914,1.08568 -1.525,3.40638 0.46024,2.30119 0.21926,2.8581 -1.23671,2.8581 -0.99459,0 -2.10834,-0.3 -2.475,-0.66667 z M 403.5,700.27103 c -2.75,-1.04543 -6.88594,-1.9026 -9.19098,-1.90482 -7.54979,-0.007 -5.76631,-2.6623 3.34119,-4.97397 3.18668,-0.80884 5.62439,-0.70588 10.5,0.44349 8.19176,1.93111 13.84231,1.92042 16.62904,-0.0315 2.51934,-1.76462 4.22075,-1.17529 4.22075,1.46196 0,6.07241 -14.96537,9.00963 -25.5,5.00482 z M 373,652.76655 c 0,-47.63931 -0.47499,-45.09142 9.33777,-50.08841 7.19305,-3.66295 13.87487,-3.50178 23.53752,0.56776 4.19075,1.76498 9.80397,3.28618 13,3.52304 3.09359,0.22927 5.96221,0.45654 6.37471,0.50505 0.4125,0.0485 0.75,18.74736 0.75,41.55301 0,39.97159 -0.0697,41.50209 -1.93426,42.5 -3.01438,1.61325 -9.39392,1.2286 -17.83412,-1.07529 -4.25239,-1.16076 -10.65662,-2.13725 -14.23162,-2.16997 -5.57934,-0.0511 -7.24984,0.38951 -11.79401,3.11048 -2.9117,1.74348 -5.7242,3.16996 -6.25,3.16996 -0.59267,0 -0.95599,-15.80836 -0.95599,-41.59563 z m 48,12.71226 c 0,-4.12382 0.32746,-4.969 2.10536,-5.43393 3.02628,-0.79139 1.92289,-2.68704 -2.43633,-4.18567 l -3.76097,-1.29296 0.60989,4.14796 c 0.33543,2.28139 0.77169,5.04797 0.96946,6.14797 0.19776,1.1 0.394,2.7875 0.43608,3.75 0.0421,0.9625 0.52651,1.75 1.07651,1.75 0.55,0 1,-2.19752 1,-4.88337 z m -7,-1.41663 c 0,-2.915 0.47893,-5.77893 1.06429,-6.36429 0.75238,-0.75238 0.58222,-1.54635 -0.58062,-2.70919 C 411.83486,652.3399 411,654.00127 411,661.9212 c 0,5.94754 0.30106,7.44098 1.5,7.44098 1.14465,0 1.5,-1.25556 1.5,-5.3 z m -34.5,2.3 c -0.82126,-2.58756 0.68357,-2.55963 3.05126,0.0566 2.12588,2.34907 5.9929,1.93109 8.07607,-0.87294 1.05539,-1.42059 1.57647,-1.48482 3.33446,-0.41105 3.17137,1.93704 3.69869,-0.87782 1.42573,-7.61057 -3.07832,-9.11829 -6.0117,-7.37381 -7.91519,4.70715 l -0.68841,4.36923 -2.50578,-2.50577 -2.50578,-2.50578 2.2132,-2.99351 c 2.88649,-3.90419 1.48135,-7.2334 -3.05297,-7.2334 -3.80381,0 -4.53408,1.85793 -4.09726,10.4241 0.25457,4.99236 0.69222,6.5759 1.81738,6.5759 1.02699,0 1.28715,-0.61411 0.84729,-2 z m 11.04271,-6.9309 c -0.68308,-1.10523 0.8944,-2.29865 1.81781,-1.37525 0.95079,0.95079 0.77359,2.30615 -0.3015,2.30615 -0.51754,0 -1.19988,-0.41891 -1.51631,-0.9309 z M 380,656.86218 c 0,-0.825 0.7301,-1.5 1.62244,-1.5 1.3288,0 1.39713,0.27149 0.37756,1.5 -0.68469,0.825 -1.41479,1.5 -1.62244,1.5 -0.20766,0 -0.37756,-0.675 -0.37756,-1.5 z m 28.06653,9.91983 c 0.99633,-1.2005 1.05407,-2.26197 0.24031,-4.41786 -0.75571,-2.00213 -0.75842,-3.15039 -0.009,-3.89963 1.53905,-1.53905 -1.10486,-6.01585 -3.97884,-6.73717 -4.60349,-1.1554 -5.30464,-0.0482 -4.64838,7.34059 0.3319,3.73683 1.04692,7.35674 1.58895,8.04424 1.37719,1.74681 5.23885,1.55951 6.80714,-0.33017 z M 403,663.36218 c 0,-1.1 0.45,-2 1,-2 0.55,0 1,0.9 1,2 0,1.1 -0.45,2 -1,2 -0.55,0 -1,-0.9 -1,-2 z m -1,-7.5 c 0,-1.02996 0.6554,-1.52043 1.75,-1.30963 2.10784,0.40593 1.97493,2.18068 -0.19718,2.63295 C 402.64684,657.37415 402,656.82291 402,655.86218 z m 15.41821,-16.10699 c 2.52911,-0.97051 1.87353,-3.39301 -0.91821,-3.39301 -3.22472,0 -3.41432,-3.28639 -0.27053,-4.68919 l 2.22948,-0.99482 -2.22948,-1.19318 c -2.96307,-1.58579 -2.82992,-3.12281 0.27053,-3.12281 1.83333,0 2.5,-0.53333 2.5,-2 0,-1.65969 -0.66667,-2 -3.91794,-2 l -3.91794,0 -0.33206,6.88897 c -0.41031,8.51229 -0.15252,9.87107 1.97942,10.43355 2.68109,0.70735 2.93691,0.71126 4.60673,0.0705 z m -9.32576,-2.48546 c 1.4906,-1.4906 1.88399,-2.71304 1.36769,-4.25 -0.39862,-1.18665 -0.83718,-3.50755 -0.97458,-5.15755 -0.1374,-1.65 -0.30286,-3.50791 -0.36769,-4.12868 -0.15398,-1.47444 -5.68785,-3.75512 -7.05751,-2.90862 -0.61051,0.37731 -1.06036,4.20683 -1.06036,9.02677 0,8.95628 -0.33367,8.36049 5.25,9.37435 0.4125,0.0749 1.6916,-0.80542 2.84245,-1.95627 z m -5.51824,-3.57477 c -0.35188,-0.91697 -0.17181,-2.13518 0.40015,-2.70714 1.31295,-1.31295 4.57749,1.67244 3.58495,3.2784 -1.01486,1.64207 -3.25923,1.32035 -3.9851,-0.57126 z m -0.11533,-7.39931 c -0.92034,-1.48915 0.14673,-2.29879 2.06137,-1.56407 0.88358,0.33906 1.32643,1.06965 0.98412,1.62354 -0.81058,1.31154 -2.21511,1.28411 -3.04549,-0.0595 z m -13.98666,7.94513 c 1.95424,-1.86147 1.94784,-1.8786 -0.70228,-1.8786 -2.5823,0 -2.68477,-0.21547 -2.97222,-6.25 -0.22658,-4.75657 -0.65614,-6.25 -1.79772,-6.25 -1.1648,0 -1.4278,1.04035 -1.17691,4.65551 0.1777,2.56053 -0.11514,6.24269 -0.65077,8.18256 -0.53562,1.93988 -0.72671,3.77421 -0.42463,4.07628 0.96084,0.96085 5.68008,-0.58834 7.72453,-2.53575 z m 6.72122,-3.8811 c -0.28784,-3.97937 -0.003,-6.52151 0.84381,-7.54238 1.58715,-1.9124 0.0212,-3.81683 -2.68103,-3.26059 -1.1792,0.24274 -1.75536,1.09759 -1.57968,2.34378 0.1521,1.07893 0.3771,4.77411 0.5,8.21152 0.17544,4.90673 0.55953,6.24986 1.78727,6.25 1.29296,1.4e-4 1.48861,-1.03944 1.12963,-6.00233 z m -81.11449,-1.58083 c 0.048,-1.16495 0.28494,-1.4019 0.60416,-0.60417 0.28887,0.72187 0.25335,1.58438 -0.0789,1.91667 -0.3323,0.33229 -0.56864,-0.25834 -0.52522,-1.3125 z m 15.11368,34.59703 c 0.32725,-4.52416 1.0089,-6.59931 2.7908,-8.49606 2.79954,-2.97998 2.04396,-4.30678 -1.52626,-2.68008 -1.4032,0.63934 -3.62854,1.16244 -4.94521,1.16244 -4.00708,0 -4.71407,2.84187 -0.85359,3.43121 2.01744,0.30799 2.34607,3.50363 0.95831,9.31879 -0.6741,2.82472 -0.51921,3.25 1.18367,3.25 1.67927,0 2.02115,-0.85549 2.39228,-5.9863 z m 7.93987,2.4863 c 2.40878,-4.08257 4.54283,-4.48414 5.83057,-1.09714 1.16692,3.06923 2.53866,3.90742 3.8232,2.33613 1.31409,-1.60742 -3.83832,-16.12457 -5.86057,-16.51244 -1.3703,-0.26283 -2.94501,2.47886 -4.46474,7.77345 -0.39467,1.375 -1.54056,4.13178 -2.54643,6.12618 -1.73605,3.44219 -1.65208,4.87382 0.28586,4.87382 0.47688,0 1.79633,-1.575 2.93211,-3.5 z m 2.8675,-7.5 c 0,-0.55 0.45,-1 1,-1 0.55,0 1,0.45 1,1 0,0.55 -0.45,1 -1,1 -0.55,0 -1,-0.45 -1,-1 z m 18.34678,2.74947 2.04452,-2.75054 -3.19565,-3.29707 c -3.54698,-3.65955 -3.92287,-4.70186 -1.69565,-4.70186 0.825,0 1.5,0.45 1.5,1 0,0.55 0.45,1 1,1 0.55,0 1,-0.89143 1,-1.98095 0,-2.45587 -3.96473,-3.64348 -6.90686,-2.0689 -2.79725,1.49704 -2.64209,4.18551 0.40686,7.04985 2.41532,2.26907 3.34383,5 1.7,5 -0.44,0 -1.34,-0.54 -2,-1.2 -1.6932,-1.6932 -3.27632,0.19215 -2.53659,3.02086 0.85363,3.26429 5.92577,2.63846 8.68337,-1.07139 z M 329.8836,635.26302 c 2.64559,-5.97681 4.04914,-11.82437 2.99456,-12.47614 -1.39856,-0.86436 -2.19427,0.13763 -3.49984,4.40715 l -1.12167,3.66815 -1.22615,-3.25 c -0.79148,-2.09788 -1.90047,-3.25 -3.12833,-3.25 -2.2565,0 -2.40278,1.75404 -0.37037,4.44113 0.80751,1.06762 1.4682,2.94332 1.4682,4.16821 0,5.8391 2.74347,7.12639 4.8836,2.2915 z m 9.8664,0.46887 c 2.78667,-0.74679 2.89838,-2.02915 0.25,-2.86971 -2.35086,-0.74613 -2.64755,-3.03753 -0.5,-3.86163 1.6649,-0.63888 2.0771,-3.63837 0.5,-3.63837 -1.97482,0 -0.9523,-2.77921 1.23275,-3.35062 1.67729,-0.43862 1.94784,-0.86879 1.0875,-1.72913 -0.78891,-0.78891 -2.02812,-0.85192 -3.98275,-0.2025 -2.74962,0.91356 -2.84655,1.18031 -3.12956,8.6125 -0.30853,8.10193 -0.17791,8.30437 4.54206,7.03946 z m 11.38735,-4.08875 c 1.12602,2.01207 3.86265,2.30896 3.86265,0.41904 0,-0.715 -0.51496,-1.81496 -1.14437,-2.44437 -0.85915,-0.85915 -0.82213,-1.9223 0.14855,-4.26573 1.09897,-2.65314 1.06443,-3.34986 -0.23026,-4.64455 -0.83775,-0.83775 -3.00165,-1.59567 -4.80866,-1.68427 l -3.28548,-0.16108 -0.38028,6.42355 c -0.50952,8.60648 0.20114,10.37104 2.86246,7.10741 1.82772,-2.24139 2.10207,-2.31054 2.97539,-0.75 z m -2.54079,-7.12473 c -0.34605,-0.55992 -0.1419,-1.31919 0.45366,-1.68727 1.53748,-0.95021 2.52947,0.35135 1.24598,1.63484 -0.71818,0.71818 -1.27752,0.73543 -1.69964,0.0524 z m 12.19725,1.59377 c -0.34763,-8.57795 -2.15463,-9.35941 -2.59783,-1.12347 -0.33086,6.14811 0.15189,8.37347 1.81644,8.37347 0.69508,0 0.97133,-2.56314 0.78139,-7.25 z M 332.5,747.41672 c -1.65,-0.42079 -5.475,-1.32294 -8.5,-2.00477 -12.14436,-2.73732 -21.44718,-5.67937 -34.5,-10.91075 -16.1595,-6.4765 -38.77891,-19.93786 -54.5,-32.43427 -16.45429,-13.07923 -37.00773,-36.26359 -48.05369,-54.20475 -4.85716,-7.88914 -13.31656,-24.22646 -16.82839,-32.5 -2.84082,-6.69273 -8.4379,-23.66423 -10.05868,-30.5 -0.65204,-2.75 -1.57566,-6.575 -2.05249,-8.5 C 155.72607,567.15505 153,543.06358 153,532.11542 c 0,-15.28499 3.77817,-45.41561 6.99106,-55.75324 0.42734,-1.375 1.33137,-4.525 2.00894,-7 1.39388,-5.09147 2.8248,-9.55926 4.00343,-12.5 0.44088,-1.1 1.82939,-4.7 3.08559,-8 3.32544,-8.73585 13.85861,-29.5 14.96465,-29.5 0.52048,0 0.94633,2.00887 0.94633,4.46416 0,6.34356 3.1575,38.01858 5.08747,51.03584 3.23746,21.83607 6.04157,34.83978 13.3696,62 1.69479,6.2815 8.99696,28.55295 10.49187,32 0.47705,1.1 2.07155,5.15 3.54333,9 4.51619,11.81379 19.04544,42.26382 24.7739,51.92049 1.65727,2.79373 3.79442,6.42951 4.74921,8.07951 11.44194,19.77315 26.68401,40.87045 43.34792,60 9.81729,11.26988 34.96641,35.8685 43.96232,43 4.16272,3.3 7.59239,6.3375 7.62148,6.75 0.0661,0.93698 -5.45452,0.82276 -9.4471,-0.19546 z m 72.5,0.18555 c 0,-0.41794 4.00641,-4.13044 8.90313,-8.25 15.55451,-13.08582 43.29956,-41.79124 54.11689,-55.99009 1.88557,-2.475 3.66493,-4.725 3.95414,-5 2.74547,-2.61056 21.61216,-30.3393 27.55628,-40.5 10.13899,-17.33128 23.2641,-44.05501 28.97729,-59 1.47178,-3.85 3.05738,-7.9 3.52356,-9 0.46618,-1.1 1.82131,-4.925 3.01139,-8.5 1.19009,-3.575 2.52171,-7.4 2.95916,-8.5 1.41872,-3.56747 6.76231,-22.16869 9.04902,-31.5 0.47174,-1.925 1.35647,-5.525 1.96606,-8 1.89243,-7.68337 6.3238,-31.6262 8.05105,-43.5 1.5177,-10.43328 2.90019,-25.56504 3.5175,-38.5 0.30185,-6.325 0.76459,-12.15399 1.02831,-12.95332 0.65274,-1.97844 3.19104,1.95151 9.33518,14.45332 10.82636,22.02896 15.66458,37.03175 20.72548,64.2674 1.97164,10.61058 2.41243,56.6832 0.6193,64.7326 -0.6126,2.75 -1.63787,7.7 -2.27837,11 -1.36362,7.02564 -2.1856,10.34227 -5.08061,20.5 -2.59009,9.08783 -2.18971,8.00684 -9.07442,24.5 -14.98246,35.89231 -42.6512,69.64471 -76.64721,93.5 -24.04402,16.8719 -49.77999,28.0652 -80.50186,35.01255 C 409.45771,748.4673 405,748.86639 405,747.60227 z M 255.60785,637.11218 c -8.00294,-12.51972 -22.35212,-41.22491 -29.61796,-59.25 -7.02344,-17.42374 -16.65965,-47.18478 -19.42716,-60 -0.35633,-1.65 -1.12295,-5.025 -1.7036,-7.5 -4.85491,-20.69377 -7.75482,-39.16628 -10.85873,-69.17044 -1.38504,-13.38863 -1.32104,-54.51336 0.0862,-55.38308 1.33878,-0.8274 173.60964,-0.75226 174.9503,0.0763 0.60304,0.3727 0.96311,27.4951 0.96311,72.54693 l 0,71.95169 -11.38066,11.23929 c -6.25938,6.18163 -21.46009,21.13931 -33.77938,33.23931 -12.31928,12.1 -32.12043,31.5625 -44.00256,43.25 -11.88212,11.6875 -22.09604,21.25 -22.69758,21.25 -0.60155,0 -1.74094,-1.0125 -2.53198,-2.25 z m 34.95102,-42.17335 c 1.85264,-1.35847 1.67901,-1.67951 -3.80887,-7.04234 -5.88256,-5.74852 -6.20678,-6.56674 -5.75425,-14.52168 0.54342,-9.55263 8.6584,-15.40549 16.44234,-11.85888 2.24643,1.02354 2.76955,0.852 4.63535,-1.51998 2.91806,-3.70972 7.34068,-5.81892 10.52526,-5.01964 2.87926,0.72265 4.36018,-0.69204 4.38599,-4.18982 0.0183,-2.47816 3.31094,-5.62566 7.69302,-7.35385 3.82292,-1.50767 5.55804,-3.42135 7.31742,-8.07046 2.16359,-5.71725 5.89471,-9.96675 10.80228,-12.30311 l 4.61461,-2.19689 0.21922,-6 c 0.29706,-8.13032 1.24038,-10.15423 7.78151,-16.69536 l 5.62598,-5.62598 -2.6109,-4.83933 c -2.24959,-4.16965 -2.5369,-5.66963 -2.07616,-10.83933 0.29411,-3.3 1.73141,-9.375 3.194,-13.5 4.16501,-11.74679 4.20008,-12.60085 0.54734,-13.3314 -3.63536,-0.72707 -7.45914,-6.06248 -6.57093,-9.1686 2.86987,-10.03616 2.84198,-24.5 -0.0472,-24.5 -0.77144,0 -3.15088,1.87423 -5.28765,4.16496 -5.63446,6.04045 -7.1872,5.0308 -7.1872,-4.67341 0,-8.25439 -2.11338,-14.0567 -6.14958,-16.88377 -2.73881,-1.91833 -3.41555,-1.48249 -4.90064,3.15615 -1.62022,5.06074 -4.56649,8.05577 -9.13465,9.28585 L 317,412.43927 l 0,5.96145 c 0,3.2788 0.36885,5.96146 0.81966,5.96146 0.45082,0 1.80818,-1.13689 3.01637,-2.52643 2.66446,-3.0644 5.21608,-2.1762 7.14814,2.48821 1.5968,3.85502 0.0162,8.21521 -4.54533,12.53822 -1.74101,1.65 -2.96449,3.5625 -2.71883,4.25 0.63674,1.78197 6.29401,1.54729 8.38824,-0.34796 3.82339,-3.46012 5.15094,1.02043 1.88801,6.37213 -2.30236,3.77623 -2.39785,4.22583 -0.89747,4.22583 1.71019,0 6.90121,-6.00497 6.90121,-7.98331 0,-0.97449 0.72821,-2.37616 1.61825,-3.11483 1.39589,-1.15849 1.91548,-0.97025 3.78146,1.36991 4.28913,5.37907 8.60029,20.60288 8.60029,30.3698 0,6.80432 -3.34215,23.12487 -6.52403,31.85843 -3.19046,8.75714 -9.01968,20.6331 -11.36125,23.14649 -0.97605,1.04767 -2.59961,3.16391 -3.6079,4.70276 -3.39238,5.17742 -22.85965,17.08938 -34.95288,21.38755 -6.28368,2.23335 -10.84668,6.77128 -14.60022,14.52003 -4.05639,8.37392 -4.0212,13.99244 0.11908,19.01533 3.29134,3.99296 2.64392,5.22988 -0.77352,1.47784 -4.88876,-5.36741 -5.67376,-12.37766 -2.27415,-20.30863 1.11382,-2.59844 1.85323,-4.89634 1.64313,-5.10644 -0.91933,-0.91933 -3.42203,0.97822 -5.15139,3.9058 -1.2585,2.13047 -2.03214,2.71345 -2.34708,1.76864 -0.25839,-0.77516 0.0477,-1.58187 0.68021,-1.7927 0.6325,-0.21084 1.15,-0.79069 1.15,-1.28857 0,-2.74586 10.25417,-10.60236 19.25,-14.74889 2.6125,-1.2042 4.75,-2.70345 4.75,-3.33166 0,-2.80933 4.40203,-12.84755 5.63399,-12.84755 1.64397,0 1.65284,-0.37976 -0.10515,4.5 -2.02664,5.62543 -1.90887,7.5 0.47116,7.5 1.19415,0 2.04648,-0.70512 2.11535,-1.75 0.37808,-5.73589 1.70948,-8.03708 5.344,-9.23658 3.70125,-1.22153 4.68729,-2.73665 3.85423,-5.92229 -0.72081,-2.75639 1.30623,-5.09113 4.42016,-5.09113 2.2574,0 2.43619,-0.30223 1.92266,-3.25 -0.3114,-1.7875 -0.10396,-5.275 0.46097,-7.75 0.56493,-2.475 1.26886,-5.9625 1.56429,-7.75 0.29543,-1.7875 0.93792,-3.25 1.42775,-3.25 1.70006,0 0.87969,-3.52571 -1.10941,-4.76793 -1.15076,-0.71866 -2,-2.33202 -2,-3.79956 0,-1.44572 0.43317,-2.28283 1,-1.93251 0.55,0.33992 1,1.52447 1,2.63234 0,3.559 3.45502,1.81768 3.81579,-1.92314 0.18292,-1.89673 1.1296,-3.78266 2.25,-4.48236 1.06382,-0.66436 1.93421,-1.90969 1.93421,-2.76739 0,-0.8577 0.5325,-2.09195 1.18333,-2.74278 1.80153,-1.80153 0.29439,-2.52803 -2.1491,-1.03596 -1.9361,1.18225 -2.41365,1.02784 -4.59738,-1.48647 C 323.24205,477.52935 323,476.35514 323,468.23499 c 0,-6.33517 -0.41058,-9.42625 -1.38095,-10.39662 -1.84115,-1.84115 -2.79783,-0.73533 -1.35819,1.56991 0.87443,1.40018 0.8284,2.4186 -0.19582,4.33237 -0.78786,1.47214 -1.08709,3.76127 -0.727,5.56171 0.6854,3.42702 -0.82998,4.13689 -2.8714,1.34508 -0.90846,-1.24239 -0.97462,-2.41311 -0.24019,-4.25 0.55752,-1.39439 1.07214,-4.78526 1.14361,-7.53526 0.12117,-4.66245 0.30255,-5 2.68683,-5 1.68709,0 3.64312,-1.23554 5.75,-3.63202 4.35933,-4.95853 4.13727,-5.95913 -1.16132,-5.23288 -3.8472,0.52732 -4.74029,0.25208 -7.66694,-2.36289 -3.80672,-3.4013 -3.57465,-5.65871 0.69061,-6.71766 4.63121,-1.14982 7.33076,-4.37577 7.33076,-8.76025 0,-4.95325 -2.25682,-6.00881 -5.10514,-2.38777 -2.23073,2.83592 -6.83787,5.59347 -9.3452,5.59347 -2.19648,0 -1.92193,-3.35312 0.45034,-5.5 1.51413,-1.37027 2,-3.07997 2,-7.03764 l 0,-5.22766 -5.25,-2.5331 c -9.49112,-4.57942 -13.0248,-5.73853 -18.16963,-5.95992 -4.60677,-0.19824 -5.56959,0.16973 -10.32828,3.94722 -4.61652,3.66463 -14.34622,8.3111 -17.40345,8.3111 -2.21387,0 -8.69362,4.34183 -9.93141,6.65466 -1.66111,3.10381 -0.34697,6.94887 3.30388,9.66687 2.28302,1.69968 3.12824,1.84032 5.25,0.87359 C 261.862,432.92357 263,431.73979 263,430.9267 c 0,-0.8131 2.5875,-4.06309 5.75,-7.22221 5.40522,-5.39943 6.04397,-5.74679 10.65264,-5.79307 3.06402,-0.0308 5.06416,0.41954 5.33334,1.20076 0.2717,0.78857 -0.52294,1.25 -2.15265,1.25 -1.42083,0 -2.58333,0.28718 -2.58333,0.63817 0,0.35099 1.8,2.59094 4,4.97766 4.28249,4.64594 4.93973,7.30158 2.42857,9.81274 -2.41996,2.41996 -3.28026,1.90394 -3.6182,-2.17025 -0.43231,-5.21181 -2.85632,-5.37147 -5.0396,-0.33194 -2.48128,5.72737 -4.8251,6.6776 -9.63822,3.90752 -3.65609,-2.10418 -4.01918,-2.1382 -6.37132,-0.59702 -3.67364,2.40706 -4.02978,5.29052 -1.08561,8.78947 1.37619,1.63551 2.9552,2.97365 3.5089,2.97365 0.55371,0 2.31371,0.93064 3.91111,2.06809 2.2628,1.61126 2.90437,2.84461 2.90437,5.58334 0,4.01897 -2.08746,4.21414 -3.01573,0.28195 -0.33602,-1.42341 -2.14173,-3.29948 -4.38909,-4.5601 -6.88772,-3.86356 -9.11675,-6.84271 -8.92018,-11.92198 0.14666,-3.78936 -0.21757,-4.7607 -2.29568,-6.12233 -2.07449,-1.35926 -2.85248,-1.4137 -4.85871,-0.34 -1.3138,0.70312 -2.93178,2.58947 -3.59552,4.19188 -0.66374,1.6024 -2.38091,3.55808 -3.81594,4.34594 -9.07833,4.98416 -13.47209,14.16811 -9.94581,20.78895 2.82486,5.30387 8.4353,6.28125 11.76408,2.0494 2.75153,-3.498 2.6133,-5.78282 -0.52597,-8.69371 -3.4238,-3.17473 -2.80615,-5.72962 1.94623,-8.05045 3.35385,-1.63787 4.38059,-1.72227 8,-0.65765 6.35685,1.86983 9.65232,5.51096 9.65232,10.66474 0,2.33964 -0.45,4.53201 -1,4.87193 -1.43634,0.88771 -1.23535,4.50105 0.25,4.49442 4.49693,-0.0201 9.63189,-2.69651 14.5675,-7.59287 5.95273,-5.90539 8.32936,-6.55166 11.86805,-3.22724 3.32307,3.12187 3.21141,9.96093 -0.23644,14.4813 l -2.55089,3.34439 3.32304,0 c 2.23976,0 4.54753,-1.00932 7.07919,-3.09613 5.40432,-4.4547 6.69955,-3.48104 6.69955,5.03623 0,11.1807 -4.3102,19.03189 -15,27.32307 l -3.5,2.71465 2.79831,0.0111 c 1.53906,0.006 4.66109,-0.88891 6.93783,-1.98891 4.85418,-2.34528 4.76386,-2.32906 4.76386,-0.85598 0,0.62922 -1.6875,2.60926 -3.75,4.40011 -2.0625,1.79085 -3.4254,3.58813 -3.02868,3.99397 1.27747,1.30679 10.00974,-1.80208 13.38451,-4.76516 4.39722,-3.86082 6.03863,-10.87562 4.49419,-19.2066 -2.11875,-11.42885 -0.58541,-18.00233 1.70662,-7.31634 3.8914,18.14265 1.221,32.84123 -8.22091,45.25 -4.29051,5.63868 -11.316,12.28541 -16.53151,15.64027 -3.94086,2.53494 -5.35054,2.85973 -12.41214,2.85973 -6.6578,0 -8.6556,-0.40392 -12.16236,-2.45902 -6.38696,-3.74301 -7.76377,-6.50824 -7.30275,-14.66714 0.33371,-5.90586 0.15356,-6.87385 -1.27927,-6.87385 -2.24901,0 -5.01222,4.43488 -5.62918,9.03471 -1.06023,7.90461 5.11171,13.43595 19.73148,17.68352 2.01102,0.58427 -3.25654,4.86403 -7.875,6.39824 -3.71107,1.23278 -8.99666,0.0324 -14.625,-3.32137 -3.9206,-2.33619 -4.5,-2.26279 -4.5,0.57004 0,3.39852 3.26756,7.07032 8.46682,9.51426 5.63102,2.64689 11.01126,2.69073 17.71285,0.14433 2.86062,-1.08695 5.39896,-1.77844 5.64076,-1.53664 0.2418,0.2418 -1.30638,3.92515 -3.4404,8.18522 -3.32182,6.63124 -3.88003,8.68662 -3.88003,14.28663 l 0,6.54106 3.25591,0 c 2.49476,0 3.708,0.68557 5.18976,2.93257 1.06361,1.61292 2.97345,3.50947 4.24409,4.21457 3.13229,1.73816 11.9616,1.69484 14.36911,-0.0705 z m -22.03258,-19.07665 c 0.73413,-4.66599 2.49183,-7.15303 2.43827,-3.45 -0.0195,1.3475 -0.71767,3.575 -1.55152,4.95 -1.48431,2.44758 -1.5029,2.41613 -0.88675,-1.5 z m 5.47371,-28.5 c 0,-0.55 1.575,-1 3.5,-1 1.925,0 3.5,0.45 3.5,1 0,0.55 -1.575,1 -3.5,1 -1.925,0 -3.5,-0.45 -3.5,-1 z m -16,0.20089 c 0,-0.43951 -1.57312,-1.36796 -3.49583,-2.06322 -5.69561,-2.05956 -9.97372,-6.91649 -12.01241,-13.63767 -2.00237,-6.60148 -3.2575,-8.76282 -4.60507,-7.92997 -2.13618,1.32023 -0.19571,10.25701 3.42798,15.78746 2.41265,3.68217 10.37967,8.64251 13.88111,8.64251 1.54232,0 2.80422,-0.3596 2.80422,-0.79911 z m 54.66417,-6.76811 c 0.9069,-2.36334 -1.22094,-4.04552 -3.12179,-2.46795 -0.84831,0.70403 -1.54238,1.89996 -1.54238,2.65761 0,1.90069 3.92324,1.74116 4.66417,-0.18966 z m 6.74599,-4.3335 c 0.94607,-1.0454 1.31415,-2.15163 0.81795,-2.4583 -1.06892,-0.66063 -5.22811,2.05673 -5.22811,3.41572 0,1.60543 2.60203,1.04054 4.41016,-0.95742 z m -27.13782,-5.01072 c 2.32521,-2.15129 5.0406,-5.30129 6.0342,-7 1.74204,-2.97831 1.74204,-3.08745 0,-3.05735 -0.9936,0.0172 -3.60654,1.13986 -5.80654,2.49488 -3.12771,1.92641 -5.36295,2.46478 -10.25,2.46879 -7.0104,0.006 -8.57842,1.72131 -2.00863,2.19762 3.33986,0.24214 4.30879,0.7326 4.55855,2.3075 0.90531,5.70857 1.85744,5.78356 7.47242,0.58856 z m 34.65093,-2.67745 C 328.8298,527.16905 330,525.24491 330,523.71427 c 0,-1.35857 0.39901,-2.22352 0.88669,-1.92212 1.32115,0.81651 3.42554,-2.17394 2.75657,-3.91724 -0.81552,-2.1252 -2.39152,-1.88125 -3.14302,0.48652 -0.5251,1.65442 -0.98138,1.81362 -2.64553,0.92299 -1.10604,-0.59193 -2.76039,-0.78867 -3.67633,-0.4372 -1.43674,0.55133 -1.32306,0.90675 0.82815,2.58927 2.09387,1.63768 2.25308,2.09754 0.99347,2.86949 -4.13866,2.53636 -5.28849,3.86201 -4.69386,5.41159 0.86939,2.26561 2.03533,2.0696 5.61713,-0.94428 z M 319,529.36218 c 0,-0.55 -0.42344,-1 -0.94098,-1 -0.51754,0 -1.2191,0.45 -1.55902,1 -0.33992,0.55 0.0835,1 0.94098,1 0.85746,0 1.55902,-0.45 1.55902,-1 z m 9,-15.5 c 0,-0.825 -0.675,-1.5 -1.5,-1.5 -0.825,0 -1.5,0.675 -1.5,1.5 0,0.825 0.675,1.5 1.5,1.5 0.825,0 1.5,-0.675 1.5,-1.5 z m 7.22345,-1.6747 c -0.1521,-0.92109 0.69456,-2.35489 1.88146,-3.18623 2.56754,-1.79837 1.91017,-4.63907 -1.07353,-4.63907 -1.37517,0 -2.03138,0.65621 -2.03138,2.03138 0,1.11727 -0.675,2.29041 -1.5,2.60699 -0.825,0.31659 -1.5,1.68376 -1.5,3.03817 0,1.98178 0.43928,2.40017 2.25,2.14301 1.45673,-0.20689 2.1525,-0.90999 1.97345,-1.99425 z M 329,507.36218 c 0,-2.02733 -0.49651,-3 -1.53138,-3 -1.80787,0 -2.92129,2.37799 -2.10699,4.5 1.06629,2.7787 3.63837,1.71831 3.63837,-1.5 z m 3.6771,-4.60092 c 0.33788,-0.88051 -0.0137,-1.99862 -0.78138,-2.48469 -1.74011,-1.10183 -2.0543,-1.0998 -3.83142,0.0247 -1.18984,0.7529 -1.21168,1.17839 -0.12755,2.48468 1.68467,2.02991 3.95647,2.01807 4.74035,-0.0247 z m 9.11137,-3.53919 c 0.36614,-1.90121 -2.53591,-5.13402 -3.86909,-4.31006 -1.07908,0.66691 -1.23413,4.80209 -0.21814,5.81807 1.16859,1.1686 3.75558,0.21411 4.08723,-1.50801 z m -8.36268,-5.19267 C 332.64068,491.98344 329,491.80501 329,493.81249 c 0,1.75577 3.18827,3.73197 4.28278,2.65463 0.43053,-0.42378 0.49489,-1.52075 0.14301,-2.43772 z M 343,490.36218 c 0,-1.65 -0.45,-3 -1,-3 -0.55,0 -1,1.35 -1,3 0,1.65 0.45,3 1,3 0.55,0 1,-1.35 1,-3 z m -5.58179,0.39301 C 338.2882,490.42135 339,489.53718 339,488.79037 c 0,-1.64172 -3.6511,-3.76186 -5.02067,-2.91542 -1.39965,0.86504 -1.21105,4.22706 0.27067,4.82495 0.6875,0.27741 1.3257,0.53991 1.41821,0.58333 0.0925,0.0434 0.88002,-0.19419 1.75,-0.52804 z M 339,482.4212 c 0,-1.17986 -1.95035,-2.442 -2.66667,-1.72569 -0.71631,0.71632 0.54583,2.66667 1.72569,2.66667 0.51754,0 0.94098,-0.42344 0.94098,-0.94098 z m 5.8192,-4.46555 c 0.35508,-4.32713 -1.1575,-6.01797 -4.01532,-4.48851 -1.46385,0.78343 -1.80388,0.58177 -1.80388,-1.06978 0,-1.39032 -0.65476,-2.03518 -2.06642,-2.03518 -1.66432,0 -2.00485,0.53512 -1.75,2.75 0.27471,2.3875 0.81074,2.79091 4.06642,3.06037 3.6402,0.30127 4.79188,1.42768 2.75,2.68963 -1.72124,1.06378 -1.13125,3.67152 0.75,3.31501 1.23817,-0.23465 1.84336,-1.46934 2.0692,-4.22154 z m -15.40099,1.79954 c 1.75945,-0.67516 2.14126,-3.03985 0.57513,-3.5619 -0.652,-0.21733 -0.58542,-1.45156 0.18898,-3.50316 1.29772,-3.43807 0.002,-6.32795 -2.83615,-6.32795 -2.00747,0 -2.79826,2.75034 -1.30731,4.54682 1.01716,1.22561 1.01523,1.98359 -0.01,3.8991 -1.044,1.95075 -1.02618,2.65611 0.0993,3.92787 1.6403,1.85356 1.35007,1.76364 3.29,1.01922 z m 15.3368,-11.64301 C 344.26069,466.6112 340,465.80218 340,467.2093 c 0,1.05195 1.65002,1.94466 3.83333,2.07393 0.73334,0.0434 1.14809,-0.48355 0.92168,-1.17105 z m -6.88613,-3.09201 c 1.32112,-1.59185 0.50464,-2.65799 -2.03555,-2.65799 -1.79158,0 -2.49376,2.00623 -1.16666,3.33333 1.01012,1.01013 1.9717,0.80733 3.20221,-0.67534 z M 331,459.86218 c 0,-2.07843 -0.47778,-2.5 -2.83333,-2.5 -3.76928,0 -4.52244,0.94939 -2.51386,3.16885 2.47472,2.73453 5.34719,2.37523 5.34719,-0.66885 z m 12.84378,0.0609 c 0.47458,-2.44808 -1.64013,-4.50846 -2.76285,-2.69185 -1.09485,1.7715 -0.14453,5.31868 1.29639,4.83897 0.61748,-0.20557 1.27738,-1.17177 1.46646,-2.14712 z M 337,455.4212 c 0,-2.19922 -1.50635,-3.48215 -3.0027,-2.55735 -0.66681,0.41211 -0.65502,1.26937 0.0352,2.55902 1.33562,2.49564 2.96752,2.49472 2.96752,-0.002 z m 5.26644,-4.65879 c 0.7801,-0.7801 -1.32312,-5.40023 -2.45834,-5.40023 -1.54327,0 -2.06986,2.97967 -0.79753,4.51273 1.31855,1.58877 2.28984,1.85352 3.25587,0.8875 z M 215.06574,445.327 c 2.86208,-1.53174 2.56302,-6.29036 -0.49828,-7.92872 -3.16626,-1.69453 -5.3416,-0.78417 -6.18841,2.5898 -0.53086,2.11509 -0.1831,3.11436 1.58098,4.54282 2.64734,2.14368 2.60117,2.13648 5.10571,0.7961 z M 224.5,442.36218 c 0,-0.80994 -0.7875,-1.62427 -1.75,-1.80963 -1.22785,-0.23646 -1.75,0.30348 -1.75,1.80963 0,1.50615 0.52215,2.04609 1.75,1.80963 0.9625,-0.18536 1.75,-0.99969 1.75,-1.80963 z m 14.82722,-5.5 c -0.24236,-1.40274 -2.21104,-2.29373 -6.633,-3.00199 -4.88639,-0.78265 -7.68999,-3.60023 -7.70953,-7.74801 -0.0213,-4.52691 -1.20647,-5.96668 -4.5932,-5.58008 -2.61876,0.29895 -2.92027,0.72634 -3.1966,4.53116 -0.35536,4.89306 1.69021,8.63612 6.26231,11.459 2.32102,1.43303 4.58466,1.81477 9.5428,1.60929 3.63828,-0.15078 6.42393,-0.70964 6.32722,-1.26937 z m 34.45027,-2.0567 C 275.20065,433.80866 276,432.21141 276,430.36449 c 0,-2.94445 -2.06413,-5.30993 -2.77432,-3.17936 -0.21579,0.64738 -1.70485,1.17705 -3.30901,1.17705 -2.52778,0 -2.91667,0.37333 -2.91667,2.8 0,4.86767 2.84556,6.39733 6.77749,3.6433 z m 158.94789,150.30091 -54.77462,-54.24421 0.0246,-72.75 c 0.0195,-57.49982 0.28665,-72.75785 1.27462,-72.78747 10.12071,-0.30334 173.09807,0.0522 173.42421,0.37835 0.24939,0.24939 0.4434,10.96222 0.43111,23.80628 -0.0251,26.26083 -1.57017,46.71466 -5.14442,68.10284 -3.18199,19.04092 -3.25736,19.42299 -6.95386,35.25 -3.41359,14.61567 -4.4523,18.24701 -11.01257,38.5 -2.76138,8.525 -5.4648,16.28139 -6.00758,17.23643 -0.54277,0.95504 -0.98687,2.18127 -0.98687,2.72496 0,0.54369 -1.35,3.93606 -3,7.53861 -1.65,3.60255 -3,6.75255 -3,7 0,0.81802 -6.08623,13.8422 -11.09014,23.73223 -5.16808,10.21452 -6.64422,12.91866 -11.77016,21.56178 -1.72684,2.9117 -3.1397,5.67605 -3.1397,6.14301 0,0.65603 -2.32542,2.09184 -3.33179,2.05719 -0.0925,-0.003 -24.81679,-24.41569 -54.94283,-54.25 z M 467,562.27492 c 0,-2.50664 3.03797,-4.03062 5.39988,-2.70883 1.30571,0.73071 2.95374,0.66947 5.61439,-0.20862 5.99585,-1.97881 9.59176,-5.96749 11.49027,-12.74529 0.34663,-1.2375 1.02062,-2.25 1.49775,-2.25 0.47713,0 2.05921,-0.45308 3.51574,-1.00685 l 2.64822,-1.00686 -2.54135,-3.02022 c -1.39774,-1.66112 -2.37144,-3.57054 -2.16378,-4.24315 0.20767,-0.67261 0.64916,-3.54616 0.9811,-6.38568 0.57744,-4.93963 0.43285,-5.35995 -3.34551,-9.7255 -3.71904,-4.29701 -3.89042,-4.77499 -2.94276,-8.20713 1.32073,-4.78328 0.26724,-5.73401 -5.0339,-4.54292 -3.63765,0.81733 -4.56088,0.65584 -6.91291,-1.20919 -4.90978,-3.89319 -7.10572,-4.65254 -13.44357,-4.64876 -4.59637,0.003 -7.17977,0.56227 -9.70568,2.10213 -3.2086,1.95604 -3.62306,1.99149 -6.10968,0.52261 C 443.06098,501.28513 442,501.68627 442,504.48339 c 0,0.98334 -1.11014,2.89802 -2.46697,4.25485 -4.06034,4.06034 -6.52533,8.89833 -6.52929,12.81492 -0.002,2.03004 0.38814,3.93318 0.8671,4.22919 0.47896,0.29602 1.15919,1.97999 1.51163,3.74216 0.52191,2.60956 0.15074,3.71546 -2.00074,5.96112 -2.94435,3.07323 -2.64941,5.87655 0.61827,5.87655 1.13452,0 2.21223,0.5625 2.39491,1.25 0.18268,0.6875 0.84984,3.5 1.48258,6.25 0.84465,3.67097 2.12134,5.86387 4.80309,8.25 3.27947,2.91796 4.28058,3.25 9.79894,3.25 5.51547,0 6.43949,0.30603 9.00296,2.98171 2.18699,2.28273 3.16855,2.72287 4.18709,1.87756 C 466.40131,564.61416 467,563.28822 467,562.27492 z m -5.54375,-3.33917 c -1.67107,-2.55037 -2.21205,-2.74182 -6.20216,-2.19492 -8.38934,1.14989 -13.84461,-3.19025 -14.4401,-11.48834 -0.26101,-3.63707 -0.77803,-4.59677 -3.06399,-5.68741 -2.53315,-1.20857 -3.77259,-3.2029 -1.99055,-3.2029 0.4177,0 1.33061,-0.91456 2.02868,-2.03234 1.04368,-1.67121 0.98559,-2.86776 -0.32692,-6.73365 -2.16699,-6.38274 -1.25052,-10.20938 3.5636,-14.87947 2.18538,-2.12 3.97381,-4.46582 3.9743,-5.21295 6.3e-4,-0.96425 0.75701,-1.16863 2.60678,-0.70437 1.73007,0.43422 3.49456,0.0596 5.25,-1.11469 1.85277,-1.23938 4.63255,-1.77678 9.28805,-1.79563 6.02284,-0.0244 7.02349,0.27787 10.70389,3.23316 3.0381,2.43955 4.88952,3.19461 7.35605,3 3.08837,-0.24367 3.27659,-0.0779 2.98623,2.63054 -0.22475,2.09645 0.49781,3.74487 2.63001,6 4.365,4.61667 5.35652,7.01459 4.18002,10.10902 -1.32978,3.49759 -1.27093,8.82959 0.11273,10.21325 1.33783,1.33783 0.33891,3.28713 -1.6845,3.28713 -0.79947,0 -2.50582,2.37928 -3.79188,5.2873 -2.83884,6.41912 -6.03709,8.7127 -12.14927,8.7127 -3.7323,0 -5.01173,0.49825 -6.89168,2.68383 l -2.30854,2.68383 -1.83075,-2.79409 z m -6.82115,-15.1462 c 3.76791,-2.95215 5.55195,-3.54578 8.67355,-2.88607 5.29283,1.11857 9.69135,4.31386 9.69135,7.04026 0,1.33014 0.45,2.41844 1,2.41844 0.55,0 1,-0.37396 1,-0.83102 0,-0.45706 1.125,-1.4331 2.5,-2.16898 3.36205,-1.79931 3.15203,-3 -0.52475,-3 -2.379,0 -3.24849,-0.5871 -4.07276,-2.75 -2.54182,-6.66978 -2.35624,-8.0859 1.54135,-11.76181 2.03421,-1.9185 4.51406,-3.48819 5.51078,-3.48819 1.18224,0 1.99587,-0.95599 2.3405,-2.75 0.69064,-3.59525 0.0193,-4.14395 -1.83353,-1.49863 -1.80988,2.58397 -9.21814,3.98447 -12.31358,2.32784 -1.25561,-0.67198 -2.68842,-3.15988 -3.61315,-6.27378 -1.3632,-4.5904 -1.36692,-5.4128 -0.0336,-7.44764 0.82429,-1.25808 1.49874,-2.41576 1.49874,-2.57261 0,-0.15685 -1.71519,-0.28518 -3.81154,-0.28518 l -3.81154,0 0.4218,5.08643 c 0.49456,5.96373 -1.93456,11.95916 -4.45373,10.99246 -0.83591,-0.32077 -3.25271,-0.86031 -5.37068,-1.19899 -2.13875,-0.342 -4.11973,-1.31648 -4.45563,-2.19181 -0.4739,-1.23497 -0.92007,-0.9683 -2.06173,1.23225 -1.87726,3.61843 -1.87391,5.17059 0.008,3.60891 1.17419,-0.97449 2.01726,-0.82182 4.25,0.76963 5.9505,4.24139 6.7301,5.76264 5.35732,10.45386 -0.68358,2.33599 -2.11029,5.74539 -3.17046,7.57644 l -1.9276,3.32919 2.263,1.84106 c 2.24751,1.82847 2.26733,1.82071 2.89809,-1.13493 0.34931,-1.63679 1.47431,-3.6335 2.5,-4.43713 z M 457,536.36218 c -3.04052,-3.04052 -2.60128,-7.43566 0.99931,-9.99951 3.37556,-2.40361 5.95198,-2.04252 9.03452,1.2662 2.61021,2.80173 2.48422,5.898 -0.34828,8.559 -2.8922,2.71708 -7.06764,2.79222 -9.68555,0.17431 z m 52.0472,-51.56895 c 1.46573,-2.62998 2.0658,-2.89605 5.842,-2.59028 7.15159,0.57907 14.21949,-4.24026 15.77042,-10.75325 0.87917,-3.69204 2.24045,-5.08752 4.96282,-5.08752 2.94581,0 3.11193,-2.26563 0.36737,-5.01019 -1.67689,-1.67689 -1.88581,-2.71316 -1.26005,-6.25 1.42623,-8.06113 0.89455,-10.51613 -3.18151,-14.6904 -3.57544,-3.66158 -3.73292,-4.0809 -2.67373,-7.1193 1.76721,-5.06941 1.58804,-5.25984 -4.29809,-4.56804 -4.756,0.55898 -5.77146,0.34804 -8.25,-1.71375 -4.53881,-3.77564 -6.87109,-4.64832 -12.42283,-4.64832 -3.81879,0 -6.41749,0.69715 -9.64142,2.5865 -4.05687,2.37749 -4.5552,2.4583 -6.1666,1 C 485.70483,423.78508 484,423.956 484,426.3593 c 0,1.09841 -1.48115,3.68591 -3.29144,5.75 -1.8103,2.06408 -3.8353,5.01155 -4.5,6.54993 -1.40823,3.25916 -1.59344,8.8831 -0.33767,10.25295 0.47899,0.5225 1.1576,2.16773 1.50803,3.65606 0.49853,2.11741 -0.009,3.44182 -2.33255,6.08835 -3.25031,3.70189 -2.66958,5.70559 1.65363,5.70559 1.94607,0 2.3,0.5198 2.3,3.37788 0,4.96666 2.51486,10.14048 6.20689,12.76944 2.56619,1.82729 4.58566,2.31805 9.60159,2.33333 5.79112,0.0176 6.53164,0.26608 8.38767,2.81403 2.39939,3.29387 3.63572,3.11138 5.85105,-0.86363 z m -6.39783,-3.8802 c -2.29378,-2.1258 -3.03781,-2.3114 -5.63567,-1.40578 -2.43717,0.8496 -3.78418,0.65956 -7.25335,-1.02333 -5.18483,-2.51515 -6.69629,-4.78527 -7.4558,-11.19809 -0.51437,-4.34308 -0.86149,-4.92365 -2.94384,-4.92365 -2.93299,0 -3.0135,-1.67623 -0.22317,-4.6464 1.8116,-1.92837 1.97362,-2.70059 1.06252,-5.06445 -3.1122,-8.07469 -2.08466,-13.30805 3.67678,-18.72624 1.71774,-1.6154 3.12316,-3.5279 3.12316,-4.25 0,-1.61312 0.50366,-1.63982 2.88454,-0.15294 1.50791,0.9417 2.42819,0.75353 4.8908,-1 2.33048,-1.65944 4.48199,-2.15997 9.28464,-2.15997 5.28428,0 6.80545,0.42538 9.83415,2.75 1.9739,1.51502 5.3844,2.97454 7.59439,3.25 3.49327,0.43541 3.97021,0.79568 3.69203,2.78889 -0.20245,1.45064 0.79937,3.56315 2.73555,5.76834 3.81969,4.35038 4.52977,7.11165 3.30525,12.85303 -0.73116,3.42822 -0.63242,5.171 0.40642,7.17338 1.73467,3.34358 1.81147,3.0893 -1.1581,3.83462 -1.77699,0.44599 -2.70568,1.51178 -3.11928,3.57977 -0.32391,1.61959 -2.03206,4.61416 -3.79588,6.65459 -3.02172,3.49562 -3.52596,3.70149 -8.73096,3.56454 -4.92111,-0.12948 -5.66796,0.1236 -6.84277,2.31875 -1.63601,3.05691 -2.04783,3.05806 -5.33141,0.0149 z m -9.31581,-9.38332 c -0.32099,-1.22747 0.74667,-2.9088 3.23379,-5.09252 3.41415,-2.99767 4.08243,-3.20466 8.30297,-2.57175 5.43151,0.81451 10.12968,3.85929 10.12968,6.56483 0,2.53625 0.87853,2.43139 4.5,-0.53709 l 3,-2.45907 -2.5,-0.0513 c -3.6367,-0.0746 -4.63092,-1.02475 -6.05161,-5.78346 -1.02588,-3.43627 -1.02778,-4.72033 -0.01,-6.62247 1.37597,-2.57102 8.36799,-6.9748 9.41374,-5.92905 0.35621,0.35622 0.64766,-0.29053 0.64766,-1.43722 0,-1.14668 0.27314,-2.79668 0.60699,-3.66666 0.33384,-0.86999 0.10884,-1.58179 -0.5,-1.58179 -0.60885,0 -1.10699,0.66896 -1.10699,1.48658 0,1.64424 -6.03784,4.53145 -9.37212,4.48162 -3.22338,-0.0482 -5.45455,-2.22549 -7.12121,-6.94929 -1.89664,-5.37565 -1.89091,-6.93685 0.0333,-9.06303 1.42553,-1.57519 1.25366,-1.6941 -2.31335,-1.60057 l -3.85328,0.10104 0.42586,5.1353 c 0.31206,3.76306 -0.0428,5.85053 -1.32793,7.81191 -1.61345,2.46245 -2.12255,2.62331 -6.36251,2.01038 -2.53479,-0.36642 -5.21992,-1.15498 -5.96693,-1.75234 -1.02252,-0.81766 -1.70221,-0.61567 -2.75,0.81728 -1.85559,2.53766 -1.76065,3.87664 0.22095,3.11623 1.84088,-0.70641 7.96768,2.75238 9.30638,5.25377 1.24191,2.32053 -1.07208,10.87933 -3.75604,13.89257 -2.44501,2.74497 -2.61706,3.25855 -1.09165,3.25855 0.58928,0 1.74643,0.675 2.57143,1.5 1.95422,1.95422 2.27232,1.89167 1.6907,-0.33247 z m 5.32143,-12.99627 c -3.56681,-3.94128 -0.37651,-11.17126 4.92942,-11.17126 2.79328,0 7.41559,4.0452 7.41559,6.48973 0,0.86935 -0.72675,2.6898 -1.61501,4.04545 -2.02853,3.09592 -8.17417,3.46024 -10.73,0.63608 z M 425,484.69092 c 0,-3.30559 2.808,-5.10078 7.28977,-4.66044 7.22323,0.70968 12.38842,-3.36358 15.74728,-12.4183 0.97738,-2.63481 1.7505,-3.25 4.08427,-3.25 3.44317,0 3.7606,-1.89312 0.77047,-4.59501 -1.83334,-1.65662 -2.01394,-2.5569 -1.38516,-6.90499 1.18154,-8.1705 0.89126,-9.5082 -2.90746,-13.39844 -3.55345,-3.63906 -4.79941,-8.24174 -2.59917,-9.60156 0.55,-0.33992 1,-1.32843 1,-2.1967 0,-1.3218 -0.87919,-1.47533 -5.4034,-0.9436 -5.01983,0.58998 -5.77233,0.3868 -10.60049,-2.86232 -6.70272,-4.51059 -13.08302,-4.80857 -19.71695,-0.92083 -4.12038,2.41471 -4.54769,2.47752 -6.80267,1 -3.0918,-2.02582 -3.47649,-1.98569 -3.47649,0.36263 0,1.06655 -1.75819,3.97061 -3.90709,6.45347 -5.77308,6.67027 -6.64018,10.1456 -4.15997,16.67299 2.1386,5.62834 1.95705,6.40215 -2.3497,10.01494 -2.52313,2.11657 -1.4645,4.68739 2.09899,5.0973 2.57213,0.29587 2.86409,0.7679 3.58245,5.79182 1.26537,8.84949 7.98675,13.93055 16.85438,12.74116 3.39101,-0.45483 4.17211,-0.15828 6.13341,2.32864 2.49623,3.1652 5.74753,3.8945 5.74753,1.28924 z m -5.38514,-5.46821 c -1.26349,-1.80389 -2.16592,-2.04995 -5.75341,-1.56877 -8.51156,1.14164 -14.85013,-4.42221 -14.85771,-13.04176 -0.003,-3.78465 -0.25923,-4.25 -2.33707,-4.25 -3.45708,0 -3.7918,-0.91174 -1.48178,-4.03621 1.54314,-2.0872 1.89246,-3.53739 1.35786,-5.63697 -1.92119,-7.54522 -1.7787,-11.18578 0.56891,-14.53564 1.26857,-1.81015 3.11241,-3.8792 4.09742,-4.59788 0.98501,-0.71869 1.79092,-1.92963 1.79092,-2.69099 0,-2.10279 1.69731,-2.70829 3.84029,-1.36998 1.59435,0.99569 2.3907,0.83113 4.67554,-0.96612 2.19754,-1.72859 4.09793,-2.16621 9.4068,-2.16621 5.92521,0 7.03162,0.3237 10.11514,2.95936 2.40038,2.05174 4.56122,2.97182 7.04556,3 4.26852,0.0484 5.15627,0.72443 3.93877,2.99934 -0.68534,1.28058 -0.0629,2.65614 2.54241,5.61852 4.39264,4.99468 4.93846,7.18142 3.3447,13.39996 -0.99946,3.89971 -1.02221,5.30982 -0.10049,6.23154 1.66593,1.66593 1.48561,3.79128 -0.32166,3.79128 -0.85411,0 -2.66299,2.42893 -4.1539,5.57779 -3.20126,6.76116 -5.95231,8.72466 -12.40068,8.85071 -3.88639,0.076 -5.23816,0.56291 -6.4785,2.33375 -1.95529,2.79156 -2.93868,2.81153 -4.83912,0.0983 z m -8.66716,-9.61053 c -0.34141,-3.35632 0.0747,-4.10072 3.46265,-6.19459 6.14604,-3.79847 16.58965,-0.61332 16.58965,5.0596 0,1.58674 0.24941,2.88499 0.55423,2.88499 0.30483,0 1.99233,-1.34792 3.75,-2.99537 l 3.19577,-2.99538 -2.80103,-0.005 c -2.2491,-0.004 -3.08654,-0.68796 -4.25,-3.47251 C 430.65204,459.98696 430,457.34765 430,456.02916 c 0,-3.57554 3.59202,-7.49982 7.54333,-8.24109 3.14844,-0.59065 3.45667,-0.95591 3.45667,-4.0962 0,-2.04384 -0.40719,-3.19607 -1,-2.82969 -0.55,0.33992 -1,1.19445 -1,1.89896 0,1.73399 -7.22611,4.01209 -10.2884,3.24351 -1.3564,-0.34044 -3.21859,-1.76729 -4.13819,-3.17077 -1.78657,-2.72665 -2.48872,-9.92251 -1.22804,-12.58534 0.63699,-1.34546 0.0886,-1.61363 -3.29998,-1.61363 -3.30506,0 -3.85401,0.25294 -2.93976,1.35455 1.21787,1.46744 0.41906,9.52337 -1.25439,12.65052 -0.80158,1.49791 -1.77005,1.67376 -6.1513,1.11694 -2.85997,-0.36347 -5.77651,-1.11775 -6.4812,-1.67618 -0.91783,-0.72734 -1.68883,-0.47686 -2.71819,0.88306 -2.05073,2.70928 -1.8323,3.51975 0.77244,2.866 1.56513,-0.39282 3.4223,0.30194 5.96355,2.23095 2.90339,2.2039 3.69835,3.49753 3.72702,6.065 0.02,1.79496 -0.36106,4.04496 -0.84689,5 -0.48583,0.95504 -1.46187,2.97393 -2.16898,4.48643 -0.70711,1.5125 -1.99711,2.75224 -2.86667,2.75497 -1.05934,0.003 -0.59113,0.81637 1.41898,2.46403 3.58291,2.93688 4.68672,3.13071 4.4477,0.781 z m 3.66731,-13.71482 C 413.72675,454.54171 413,452.72126 413,451.85191 c 0,-2.44453 4.62231,-6.48973 7.41559,-6.48973 5.40056,0 8.67094,7.80174 4.75567,11.34501 -2.86861,2.59606 -8.61339,2.15535 -10.55625,-0.80983 z M 218.36632,376.14588 c -1.51998,-2.45937 25.322,-24.45813 41.80943,-34.26557 35.12604,-20.89447 73.7693,-31.54254 114.40747,-31.52474 8.29577,0.004 17.52077,0.42623 20.5,0.9391 2.97923,0.51288 9.24178,1.47063 13.91678,2.12835 40.17329,5.65194 84.32837,27.22756 114.21772,55.81051 3.69474,3.53326 6.47817,6.81169 6.18539,7.28542 -0.87592,1.41727 -310.15956,1.04631 -311.03679,-0.37307 z m 322.28121,379.4663 c 12.27301,-9.63724 15.38677,-12.51733 12.74365,-11.7873 -2.74658,0.75861 -3.98428,-0.92247 -4.75821,-6.4627 -0.34573,-2.475 -1.11442,-6.975 -1.70819,-10 -0.59377,-3.025 -1.30972,-8.0875 -1.591,-11.25 -0.28128,-3.1625 -0.80895,-5.74945 -1.1726,-5.74878 -0.85881,0.002 -6.16118,4.55901 -6.16118,5.29558 0,0.31025 0.99584,0.7079 2.21297,0.88365 1.59055,0.22967 2.45367,1.30396 3.06876,3.81955 2.11653,8.6562 2.09369,8.94461 -0.91352,11.53086 -1.57752,1.35668 -3.37051,2.46725 -3.98444,2.46792 -0.61392,6.7e-4 -2.73738,-2.0796 -4.71879,-4.62283 -2.96234,-3.8023 -3.416,-4.97266 -2.55275,-6.58565 1.85824,-3.47215 0.0881,-3.14251 -4.8222,0.89799 -2.63452,2.16785 -6.36503,4.99724 -8.29003,6.28752 -1.925,1.29027 -4.71611,3.46226 -6.20248,4.82663 -2.56526,2.35473 -2.62742,2.62581 -1.22432,5.33912 2.03559,3.9364 3.28781,3.57985 4.0444,-1.15159 0.45268,-2.83092 1.64255,-4.88921 4.04661,-7 4.3242,-3.7967 5.66117,-3.75572 8.48478,0.26003 1.25685,1.7875 2.84338,3.82552 3.52561,4.52894 1.71472,1.76796 0.69474,3.83152 -3.02382,6.11763 -2.10212,1.29234 -4.12426,1.74839 -6.07569,1.37022 l -2.92492,-0.56682 2.1594,2.90002 c 4.00447,5.37792 4.90824,6.40001 5.65908,6.40001 0.41149,0 0.46678,-1.12114 0.12286,-2.49142 -0.47654,-1.8987 0.0587,-3.20717 2.24985,-5.5 1.58134,-1.65472 3.53863,-3.00858 4.34954,-3.00858 1.52868,0 7.8091,7.13249 7.8091,8.86856 0,1.64124 -7.31373,7.13251 -9.47784,7.11613 -1.11219,-0.008 -2.67567,-0.42873 -3.47441,-0.93402 -0.79874,-0.50529 -1.84509,-0.67592 -2.32521,-0.37919 -1.12664,0.6963 3.20042,5.32852 4.97748,5.32852 0.74327,0 5.21965,-3.0375 9.94751,-6.75 z m 4.28687,-11.5 c -3.59475,-3.77335 -5.00979,-6.38997 -4.3647,-8.07103 0.72851,-1.89848 4.30224,-3.2398 5.4041,-2.02831 0.7978,0.87719 2.18467,12.34934 1.4929,12.34934 -0.21383,0 -1.35337,-1.0125 -2.5323,-2.25 z m -322.72058,12.54514 c 3.95619,-3.79026 3.75056,-8.37406 -0.68822,-15.34148 -4.1292,-6.48147 -4.4025,-9.33299 -1.1018,-11.49569 2.20829,-1.44692 2.6947,-1.44805 5.47036,-0.0127 3.75737,1.94301 5.10584,4.33904 5.10584,9.07232 0,4.22185 1.66407,4.30467 3.97947,0.19806 1.35328,-2.40019 1.30261,-2.86245 -0.59402,-5.41982 -2.64454,-3.56582 -9.07143,-7.25812 -12.67063,-7.27938 -3.56336,-0.0211 -7.41828,2.50942 -9.26593,6.08239 -2.14507,4.14811 -1.84864,5.61933 2.62366,13.02123 3.41889,5.65846 3.89475,7.07251 2.96481,8.81011 -0.78962,1.47543 -2.09262,2.06982 -4.53736,2.06982 -4.01736,0 -5.5,-2.02652 -5.5,-7.51759 0,-4.16816 -1.35384,-4.25505 -3.78812,-0.24314 -1.56013,2.57123 -1.52453,2.80128 0.82899,5.35671 6.37431,6.92115 11.86532,7.7842 17.17295,2.69916 z M 195,743.36218 c 0,-0.55 -0.45,-1 -1,-1 -2.50302,0 -0.35832,-3.46048 7.66903,-12.37398 7.31501,-8.12253 9.13992,-9.62602 11.68391,-9.62602 l 3.01488,0 -5.27001,-5 c -5.87502,-5.57401 -7.43195,-6.17951 -6.51712,-2.53453 0.69711,2.77749 -0.0378,3.8755 -9.74555,14.56091 -4.90978,5.40423 -6.95387,6.97319 -9.08514,6.97338 -1.5125,1.3e-4 -2.75,0.20049 -2.75,0.44524 0,0.24475 2.1375,2.48432 4.75,4.97682 4.57132,4.36134 7.25,5.68339 7.25,3.57818 z m 378.25,-15.4466 c 3.34378,-4.19072 3.64892,-6.10485 0.72361,-4.53928 -2.0841,1.11538 -5.41811,-0.58495 -10.47361,-5.34149 -1.1,-1.03495 -3.0125,-2.56144 -4.25,-3.39219 -4.46443,-2.99704 -2.83568,-4.28044 5.43228,-4.28044 4.22525,0 11.76275,-0.50784 16.75,-1.12852 8.31389,-1.03471 9.3379,-1.409 12.31772,-4.50232 3.14342,-3.26316 4.10441,-5.36916 2.45,-5.36916 -0.44,0 -1.30705,0.50705 -1.92678,1.12678 -1.92171,1.92171 -5.67176,0.15018 -12.11874,-5.72492 -3.40915,-3.10673 -7.31356,-6.52575 -8.67647,-7.59782 -3.13455,-2.46563 -3.14262,-4.83104 -0.0265,-7.7585 2.66262,-2.5014 1.82476,-2.53924 23.04848,1.04083 12.66762,2.13681 14.50032,2.23836 14.49039,0.80292 -0.005,-0.76411 -2.3386,-4.53929 -5.18513,-8.38929 -2.84653,-3.85 -7.13965,-9.66195 -9.54027,-12.91545 -2.53585,-3.43676 -4.2503,-6.78891 -4.09159,-8 0.45923,-3.50444 -1.39178,-3.28157 -3.45044,0.41545 -1.07193,1.925 -2.44758,3.81303 -3.057,4.19563 -1.93085,1.21218 0.0714,2.01532 2.1932,0.87975 1.7467,-0.93481 2.40825,-0.59135 4.73389,2.45772 2.4211,3.17424 2.56682,3.79967 1.39525,5.98877 -1.96777,3.67681 -4.84871,6.45721 -6.24546,6.02752 -0.68356,-0.21029 -2.45056,-0.64603 -3.92665,-0.96831 -1.992,-0.43491 -2.76532,-1.28666 -3,-3.30424 -0.28967,-2.49031 -0.69358,-2.13729 -4.81619,4.20951 -2.475,3.81028 -6.37224,8.96772 -8.66053,11.46097 -4.42637,4.82283 -4.76854,6.66093 -0.91292,4.90419 1.3812,-0.62932 2.96122,-0.71711 3.82076,-0.21229 3.19724,1.87777 13.75269,11.77466 13.75269,12.89465 0,0.79564 -3.24265,1.41422 -9.75,1.85994 -28.10885,1.92533 -27.25195,1.81512 -27.20989,3.49967 0.022,0.88359 2.15955,3.29682 4.75,5.36275 2.59044,2.06593 6.50989,5.36518 8.70989,7.33166 2.2,1.96649 5.0125,4.26544 6.25,5.10878 1.45907,0.99434 2.25,2.54749 2.25,4.41834 0,3.75754 0.89848,3.63881 4.25,-0.56161 z m 22.05964,-54.74728 c -2.05292,-0.9921 -2.09276,-1.20748 -0.63499,-3.43232 0.85545,-1.30559 1.99398,-2.3738 2.53007,-2.3738 1.28092,0 4.71948,4.15196 4.76201,5.75 0.0399,1.49798 -3.60983,1.52875 -6.65709,0.0561 z m -412.18176,47.78214 c 10.86759,-4.54972 14.86501,-15.4774 9.02839,-24.68079 -3.24291,-5.11354 -10.73097,-11.90747 -13.12404,-11.90747 -0.88428,0 -3.16578,1.33171 -5.07,2.95936 -1.90423,1.62765 -4.24973,2.97765 -5.21223,3 -2.43096,0.0564 -2.25692,0.55328 1.96176,5.60018 4.00567,4.79207 5.81832,5.68597 4.75845,2.34661 -0.84334,-2.65714 3.90284,-7.90615 7.14879,-7.90615 3.26093,0 6.62772,5.20622 6.55958,10.14338 -0.14209,10.29611 -15.31212,19.65395 -23.06171,14.22593 -3.12875,-2.19146 -5.23771,-7.51512 -4.47931,-11.30712 0.67328,-3.36638 -0.75111,-4.0915 -3.20899,-1.63362 -2.16233,2.16233 -1.73788,4.76157 1.6006,9.80175 3.54565,5.35296 4.47318,6.19842 9.61722,8.76629 4.62493,2.30874 8.92884,2.49762 13.48149,0.59165 z M 149,693.38455 c 0,-2.66657 1.09342,-3.71124 10.46667,-10 10.33578,-6.93456 12.81441,-7.99462 14.04341,-6.00606 0.34546,0.55897 1.01823,0.77521 1.49503,0.48053 0.88013,-0.54395 -6.82649,-12.49684 -8.05732,-12.49684 -0.36875,0 -0.48878,1.0125 -0.26674,2.25 0.33938,1.89156 -1.28275,3.42349 -10.1825,9.61624 -9.00025,6.26268 -11.02907,7.27766 -13.54237,6.775 -3.5528,-0.71056 -3.63561,-0.25606 -0.68586,3.76437 1.24868,1.70191 2.89972,4.33189 3.66898,5.84439 1.8241,3.58648 3.0607,3.49451 3.0607,-0.22763 z m -13.2608,-18.91167 c -0.27174,-1.03912 -0.21172,-2.32682 0.13337,-2.86157 0.34509,-0.53475 5.12743,-3.35344 10.62743,-6.26376 5.5,-2.91032 10.57569,-5.73866 11.27932,-6.2852 0.90402,-0.70221 1.95252,-0.36127 3.57418,1.1622 3.05871,2.87351 4.10017,1.5835 1.57951,-1.95645 -1.10435,-1.55091 -4.30636,-7.45171 -7.11557,-13.11288 -2.80922,-5.66117 -5.56422,-10.589 -6.12221,-10.95073 -1.34939,-0.87476 -7.82763,2.26049 -7.3891,3.57608 0.18887,0.56661 1.79069,1.3262 3.55959,1.68798 4.12307,0.84326 6.4046,2.94908 8.69275,8.02328 2.13754,4.74023 3.57174,3.33536 -11.95468,11.71015 -8.88891,4.79458 -10.1397,5.21135 -12.25024,4.08182 -3.24941,-1.73903 -3.94011,-0.57223 -1.64022,2.7708 1.06234,1.54417 2.70754,4.49508 3.65601,6.55758 1.77494,3.85969 4.24999,5.22631 3.36986,1.8607 z M 621,663.58345 c 0,-2.82805 10.68726,-23.94627 12.6884,-25.07252 1.66331,-0.93611 1.53259,-1.30818 -1.59685,-4.54525 -3.48932,-3.60932 -5.89129,-3.96634 -4.09425,-0.60855 2.23314,4.17266 -0.0575,10.98434 -3.69819,10.99725 -2.62204,0.009 -20.89597,-8.53484 -21.981,-10.2774 -0.41602,-0.66814 -0.62558,-2.2273 -0.46569,-3.4648 0.40903,-3.16574 -1.69466,-2.80632 -2.92646,0.5 -0.5635,1.5125 -2.15596,4.9339 -3.5388,7.60312 -2.70174,5.21503 -2.52285,6.98464 0.43545,4.30742 1.00918,-0.9133 2.11971,-1.66054 2.46785,-1.66054 0.71222,0 19.38532,8.50692 21.70954,9.89024 3.36558,2.0031 -0.26584,9.10976 -4.65499,9.10976 -3.3079,0 -2.9107,1.47133 0.90499,3.35233 4.16178,2.0516 4.75,2.03537 4.75,-0.13106 z M 119,640.42561 c 0,-2.18528 1.35401,-3.31289 6,-4.99675 1.925,-0.69769 4.4,-1.64109 5.5,-2.09645 1.1,-0.45536 4.62241,-1.76669 7.82757,-2.91406 l 5.82757,-2.08615 1.83635,2.26499 c 2.75601,3.39932 3.38236,1.56005 1.14938,-3.37512 -1.08498,-2.39794 -2.55439,-6.15989 -3.26535,-8.35989 -0.71097,-2.2 -1.56775,-4.45 -1.90397,-5 -0.33621,-0.55 -1.23598,-3.025 -1.99949,-5.5 -1.73026,-5.60889 -2.42224,-6.08566 -6.68877,-4.60855 -4.28268,1.4827 -4.61138,2.74319 -0.96936,3.71722 4.63936,1.24075 7.07074,4.32594 9.1737,11.64055 0.71251,2.47828 1.4756,2.0392 -12.98763,7.47296 -10.99496,4.13075 -12.24048,4.32266 -14.54117,2.24056 -2.32581,-2.10483 -3.5135,-1.43444 -2.10803,1.18988 0.54416,1.01606 1.97574,4.43029 3.18129,7.58718 2.0792,5.44463 3.96791,6.78867 3.96791,2.82363 z m 520.03987,-19.17252 c 1.07807,-2.94947 1.94582,-6.26903 1.92833,-7.37679 -0.0298,-1.88693 -0.1157,-1.90361 -1.36025,-0.26412 -1.78577,2.35246 -2.86029,2.24465 -13.14516,-1.319 C 612.48055,607.44842 611,606.69392 611,604.41321 c 0,-1.12807 -0.45,-2.05103 -1,-2.05103 -0.55,0 -1.00678,0.7875 -1.01506,1.75 -0.0167,1.94308 -2.03564,8.02219 -3.34317,10.06653 -1.25135,1.9565 -0.11661,2.49696 2.20217,1.04886 1.7354,-1.08378 3.49793,-0.78913 11.84738,1.98058 14.24283,4.72467 15.30868,5.21961 15.30868,7.10868 0,1.74098 1.02802,3.35067 1.70654,2.67214 0.20526,-0.20526 1.25526,-2.78641 2.33333,-5.73588 z M 106.35694,605.07614 c 0.47209,-1.88093 1.68744,-2.51476 6.85841,-3.57678 13.72952,-2.81978 16.13007,-3.63644 18.93542,-6.44179 2.257,-2.25701 2.84923,-3.75136 2.84923,-7.18941 0,-5.57439 -3.01548,-12.58639 -6.63818,-15.43601 -3.33811,-2.62576 -6.34898,-2.48725 -19.31685,0.88864 -8.02689,2.08961 -8.52009,2.11211 -9.739672,0.44423 -2.078004,-2.84184 -2.615367,-0.89152 -1.236602,4.48814 1.235234,4.81962 2.931304,6.03027 2.931304,2.09235 0,-1.48937 1.54204,-2.35788 7.15369,-4.0291 3.93452,-1.17175 9.52588,-2.37529 12.42524,-2.67453 4.83896,-0.49943 5.48658,-0.31206 7.89181,2.28322 2.22645,2.40239 2.57584,3.58574 2.32475,7.87385 -0.35484,6.06024 -1.22124,6.62145 -15.69317,10.16535 l -9.60232,2.35143 -1.775,-2.11844 c -2.33996,-2.79269 -3.17003,-1.77171 -1.90887,2.34789 0.5585,1.82435 1.29874,5.0045 1.64498,7.067 0.7087,4.22171 2.03535,4.89238 2.89583,1.46396 z M 620,600.82169 c 0,-0.29727 -0.96507,-1.84582 -2.14459,-3.44121 -1.85106,-2.50369 -2.05137,-3.69393 -1.46347,-8.69604 0.37462,-3.18743 1.02925,-6.14345 1.45472,-6.56892 0.78472,-0.78472 4.29031,-0.21076 18.62178,3.04888 6.69366,1.52245 8.05348,2.17262 8.5,4.0641 0.29236,1.23844 0.97006,2.24998 1.50601,2.24787 1.05456,-0.004 4.8515,-14.12158 4.02133,-14.95174 -0.27701,-0.27702 -1.54782,0.47726 -2.82401,1.67618 -1.90205,1.78689 -2.84775,2.01736 -5.24605,1.27849 -1.60915,-0.49574 -5.62572,-1.45003 -8.92572,-2.12065 -9.23942,-1.87762 -12.90915,-3.49361 -13.48639,-5.9388 -0.67415,-2.85574 -2.44287,-2.75838 -2.77423,0.15272 -0.4511,3.96307 -2.40244,14.22457 -3.00258,15.78961 -2.0139,5.25188 -2.96573,10.61314 -2.07542,11.68997 1.22551,1.48223 7.83862,2.97512 7.83862,1.76954 z m 25.52028,-36.91853 c 5.04522,-2.95669 6.7657,-5.41531 8.47167,-12.10628 2.37113,-9.29981 -2.42192,-18.52397 -11.40882,-21.9561 -3.85257,-1.47131 -5.23196,-1.55265 -9.23531,-0.5446 -6.40317,1.61234 -9.72036,4.19971 -12.2304,9.53959 -7.94892,16.91058 8.8593,34.17652 24.40286,25.06739 z M 629,556.95465 c -3.59817,-1.29058 -8,-6.56863 -8,-9.59247 0,-0.93733 1.0125,-3.20458 2.25,-5.03833 4.6022,-6.81963 19.54498,-7.22991 26.12079,-0.71718 2.55306,2.52856 2.79723,3.30329 2.20614,6.99977 -0.36556,2.28608 -1.14226,4.732 -1.72602,5.43538 -3.39852,4.09497 -13.5869,5.51827 -20.85091,2.91283 z M 97,560.9212 c 0,-2.51114 1.962531,-2.85109 15.38731,-2.66543 10.17426,0.14071 13.36149,0.50909 14.22293,1.64388 1.82731,2.40712 2.2379,1.71388 2.05081,-3.46261 -0.21909,-6.06196 -0.90662,-6.87521 -3.04864,-3.60607 -1.58142,2.41355 -2.09904,2.53121 -11.13546,2.53121 -5.21232,0 -9.47695,-0.40517 -9.47695,-0.90037 0,-0.49521 5.175,-3.47467 11.5,-6.62102 6.325,-3.14636 11.5,-6.0616 11.5,-6.47831 0,-0.41671 -1.2375,-1.21808 -2.75,-1.78083 -1.5125,-0.56274 -6.35,-2.41975 -10.75,-4.12669 -4.4,-1.70694 -8.5625,-3.10111 -9.25,-3.09816 -2.16844,0.009 -1.35311,-2.73373 1,-3.36433 1.2375,-0.33164 5.9625,-0.60913 10.5,-0.61664 6.52281,-0.0108 8.25,0.28803 8.25,1.42733 0,0.79254 0.45,1.7191 1,2.05902 0.63507,0.39249 1,-2.32295 1,-7.44098 0,-4.70601 -0.41606,-8.05902 -1,-8.05902 -0.55,0 -1,0.89143 -1,1.98095 0,2.47936 -1.57319,2.87804 -15.5,3.92803 -10.915406,0.82295 -11.017698,0.81022 -13.301283,-1.65521 -1.265706,-1.3665 -2.543115,-2.24271 -2.838687,-1.94713 -0.295572,0.29557 -0.159259,2.91304 0.302918,5.8166 l 0.840321,5.27921 5.998371,2.44614 c 12.30593,5.01837 15.49836,6.5294 15.49836,7.33565 0,0.45524 -4.725,3.17762 -10.5,6.04972 l -10.5,5.222 0,5.77202 c 0,3.18135 0.448833,5.77202 1,5.77202 0.55,0 1,-0.64844 1,-1.44098 z m 553.57431,-40.86928 c 2.6533,-2.28227 2.68401,-2.45453 2.53534,-14.22042 -0.14221,-11.25459 -1.4299,-16.7847 -2.74095,-11.77125 -0.7451,2.84927 -1.72596,3.15306 -15.81012,4.89671 l -11.99023,1.48442 -1.76194,-2.2896 c -1.72938,-2.24729 -1.76235,-2.14947 -1.78417,5.29373 -0.0249,8.48423 0.75748,10.34585 2.55314,6.07523 1.18129,-2.80947 1.4326,-2.89122 11.06668,-3.6 18.86989,-1.38827 17.8137,-1.5194 18.17617,2.25676 0.44071,4.59128 -1.23063,6.18468 -6.48719,6.18468 -3.86753,0 -4.63835,-0.37659 -6.12755,-2.99368 C 635.8562,507.24343 635,507.6062 635,512.72582 c 0,8.55548 9.14433,12.85694 15.57431,7.3261 z M 98.848293,492.66878 c 0.863405,-1.54282 1.601417,-1.57628 8.299687,-0.37636 13.26653,2.37654 18.7364,2.48437 21.02365,0.41443 3.55968,-3.22146 4.95313,-7.20199 4.959,-14.16587 0.005,-6.24342 -0.19607,-6.84793 -3.08846,-9.27329 -2.93947,-2.46485 -5.7978,-3.22897 -20.33737,-5.4368 -2.93663,-0.44592 -4.02711,-1.18625 -4.82032,-3.2725 -0.8568,-2.25351 -1.17178,-2.43414 -1.91837,-1.10009 -1.55622,2.78074 -2.34299,9.90388 -1.09392,9.90388 0.6203,0 1.12781,-0.675 1.12781,-1.5 0,-3.81149 23.26234,0.0659 26.7182,4.45339 2.03451,2.583 1.57699,10.35263 -0.75715,12.85805 -2.49881,2.68215 -6.08221,2.75872 -18.46105,0.39447 -8.57634,-1.638 -9.01489,-1.84807 -9.31642,-4.46242 -0.65876,-5.7117 -2.345434,-2.12783 -4.709351,10.00651 -0.683353,3.50775 0.754537,4.45054 2.374064,1.5566 z m 538.518097,-5.68633 c 15.59715,-6.5169 13.16961,-31.46204 -3.48085,-35.76897 -4.12489,-1.06697 -5.20424,-0.95424 -10.1734,1.0626 -7.52652,3.05479 -10.92096,8.03103 -10.89072,15.96577 0.0118,3.09118 0.69248,7.19533 1.51268,9.12033 3.82373,8.97429 14.20278,13.30948 23.03229,9.62027 z m -19.46518,-9.72603 c -6.07771,-6.50621 -2.46897,-13.49326 9.09879,-17.61656 9.70857,-3.4606 18,0.47627 18,8.54661 0,7.3497 -7.51696,12.17571 -18.96481,12.17571 -4.56436,0 -5.60336,-0.39672 -8.13398,-3.10576 z M 139.01459,455.82624 c 2.10654,-5.19018 2.00367,-9.03497 -0.13928,-5.20573 -1.26069,2.25272 -4.42077,2.20437 -10.49196,-0.16055 -2.68584,-1.04622 -6.34585,-2.45081 -8.13335,-3.12132 -1.7875,-0.6705 -3.25,-1.63534 -3.25,-2.14408 0,-0.83343 9.07222,-5.35937 20.92176,-10.43745 7.69965,-3.29966 12.42152,-5.86134 12.76549,-6.92546 0.34454,-1.06591 -3.16593,-2.59085 -17.67626,-7.67849 C 122.11325,416.33216 121,415.69947 121,413.327 c 0,-1.08065 -0.45,-1.96482 -1,-1.96482 -0.55,0 -1,0.87344 -1,1.94098 0,1.06754 -0.39627,2.18589 -0.8806,2.48523 -1.57302,0.97218 -1.9699,5.57379 -0.48073,5.57379 0.74873,0 1.36133,-0.50008 1.36133,-1.11129 0,-1.4105 5.30348,-0.49488 13.76795,2.37698 6.07818,2.06223 7.16008,3.31141 4.17253,4.81769 -4.10371,2.06904 -17.95116,8.31871 -21.44048,9.67659 -5.516,2.14656 -6.49606,3.06503 -8.66176,8.1174 -2.14303,4.99948 -1.7578,6.26479 1.11564,3.66437 1.9985,-1.80862 7.00168,-1.60396 10.91923,0.44667 0.89479,0.46837 5.00189,2.1653 9.12689,3.77095 6.92424,2.69525 7.4779,3.12361 7.21215,5.58 -0.47933,4.43055 1.42019,2.99419 3.80244,-2.8753 z m 476.61057,-11.05092 c 4.33116,-1.97278 10.34303,-4.71502 13.3597,-6.09388 4.43689,-2.028 5.84073,-2.28477 7.34738,-1.34384 2.9533,1.84436 3.17131,0.39228 0.67097,-4.46918 -2.64502,-5.14276 -4.00243,-5.73801 -4.00495,-1.75624 -0.002,2.45353 -0.89035,3.18123 -8.24412,6.75 -4.5333,2.2 -8.58252,4.15 -8.99826,4.33333 -1.0346,0.45625 -0.95341,-2.47216 0.12745,-4.5969 1.12059,-2.20284 1.98165,-4.31357 7.08442,-17.36615 l 4.15557,-10.62972 -2.17179,-4.62028 c -2.54849,-5.42169 -3.70561,-5.82679 -4.13817,-1.44876 -0.35966,3.64017 -1.94412,4.70792 -14.31336,9.64567 -9.22869,3.68405 -10.30255,3.81113 -12.10795,1.43281 -1.50589,-1.98376 -1.84793,-7.85022 -0.50605,-8.67955 1.76329,-1.08977 17.114,-23.55104 17.114,-25.04132 0,-1.71859 -2.36874,-1.88747 -8.5,-0.60601 -24.58802,5.13898 -24.90837,5.17957 -27.35468,3.46611 -2.89023,-2.02439 -2.70103,-0.41749 0.53231,4.52103 2.76985,4.23059 4.89455,5.46789 3.87539,2.2568 -0.41628,-1.3116 0.14679,-2.16489 1.97967,-3 4.40722,-2.00806 6.79824,-1.40331 9.21731,2.33129 2.76445,4.26782 2.77879,4.95029 0.18072,8.59894 -1.63305,2.29341 -2.5817,2.77743 -4.5,2.29597 C 585.09382,400.4199 584,400.41041 584,400.73434 c 0,0.32395 1.4833,2.96023 3.29623,5.85841 2.92443,4.67506 5.98702,10.60639 9.04521,17.51791 1.19848,2.70857 2.15856,2.02856 2.15856,-1.52886 0,-1.96907 0.85203,-3.03555 3.5,-4.38093 4.98577,-2.53316 14.754,-6.8387 15.51538,-6.8387 1.23047,0 -0.71261,6.10246 -6.57272,20.64226 -5.46526,13.56016 -6.15082,16.35775 -4.00849,16.35775 0.44888,0 4.35982,-1.61409 8.69099,-3.58686 z m -22.12092,-55.76633 c -2.27977,-3.47937 -1.04267,-4.8937 3.90552,-4.46503 l 3.67332,0.31822 -2.88865,3.44815 -2.88865,3.44816 -1.80154,-2.7495 z m -435.95004,23.8332 c 3.71178,-6.16402 3.82932,-7.29082 0.5791,-5.55135 -1.61946,0.86671 -2.81791,0.64685 -5.83565,-1.07055 -2.08871,-1.18869 -6.49765,-3.69461 -9.79765,-5.56871 -3.3,-1.8741 -6.7875,-3.65837 -7.75,-3.96506 -1.13312,-0.36105 -1.75,-1.57399 -1.75,-3.44097 0,-3.63583 -1.25597,-3.69084 -3.04498,-0.13337 -0.76062,1.5125 -2.18666,3.94447 -3.16898,5.40437 -0.98232,1.4599 -1.78604,3.44215 -1.78604,4.40499 0,1.66522 0.0947,1.6649 1.9417,-0.007 1.86811,-1.69061 2.23766,-1.59287 9.75,2.5788 4.29457,2.38481 9.6083,5.30662 11.8083,6.49292 2.90915,1.56869 4.0887,2.89343 4.32524,4.85763 0.38984,3.23711 0.34883,3.27182 4.72896,-4.0021 z M 173,388.38356 c 0,-0.53825 -4.06316,-7.11732 -9.02925,-14.62016 -6.29724,-9.51396 -8.84873,-14.21032 -8.43261,-15.52137 1.10347,-3.47674 -1.95951,-1.92018 -4.71848,2.39784 -2.96995,4.64823 -2.96492,5.4056 0.0252,3.80531 2.44257,-1.30722 3.2679,-0.58605 9.79116,8.55547 2.55999,3.58751 4.23719,6.84789 3.74844,7.28678 -0.89366,0.80249 -17.07735,-1.99935 -19.22884,-3.32904 -0.69565,-0.42994 -0.90389,-1.75118 -0.51821,-3.28787 0.48517,-1.93307 0.30041,-2.45537 -0.74632,-2.10975 -0.76513,0.25264 -1.84114,1.33086 -2.39114,2.39605 -0.55,1.06519 -2.2375,3.54713 -3.75,5.51542 -3.37408,4.39087 -3.66676,6.45094 -0.69017,4.85792 1.97998,-1.05965 10.14616,0.003 23.44017,3.05012 9.55021,2.18903 12.5,2.42579 12.5,1.00328 z m 398.26851,-9.39707 c -0.38494,-2.01369 1.09525,-3.63044 9.71379,-10.60998 9.04119,-7.32181 10.50552,-8.16677 13.21433,-7.625 2.82466,0.56493 2.94656,0.47535 1.67488,-1.23074 -0.75433,-1.012 -2.72151,-3.69461 -4.37151,-5.96135 -3.46472,-4.75976 -4.5,-5.16628 -4.5,-1.76701 0,1.63392 -1.39259,3.59688 -4.25,5.9907 -15.68597,13.14104 -15.10079,12.7539 -18.47419,12.22178 l -3.22419,-0.50859 4.72419,5.92475 c 2.59831,3.25862 4.99929,5.92844 5.33552,5.93294 0.33623,0.005 0.40696,-1.06087 0.15718,-2.3675 z M 185,372.4821 c 0,-0.48405 4.5,-5.46585 10,-11.07067 5.5,-5.60483 9.98578,-10.72129 9.9684,-11.36992 -0.034,-1.26886 -4.47436,-6.67933 -5.48171,-6.67933 -0.33508,0 -0.31014,1.99454 0.0554,4.43231 0.63947,4.26427 0.48496,4.62442 -4.07557,9.5 -2.60713,2.78723 -5.14608,5.06769 -5.64211,5.06769 -0.49604,0 -2.78417,-1.75578 -5.08474,-3.90172 -4.05517,-3.78262 -4.1382,-3.98516 -2.72004,-6.63501 2.23756,-4.18092 5.70148,-6.11851 8.17581,-4.57327 3.83008,2.39193 3.26321,-0.0721 -0.91273,-3.96735 -4.60618,-4.29659 -7.04033,-5.20673 -5.31792,-1.98839 0.56935,1.06384 1.03518,2.3471 1.03518,2.85168 0,1.18678 -5.75012,7.21406 -6.88232,7.21406 -0.4757,0 -2.82529,-1.79196 -5.22131,-3.98213 l -4.35639,-3.98213 4.98001,-5.08904 c 4.6414,-4.74301 5.23499,-5.04939 8.73001,-4.50605 4.28135,0.66559 4.77434,-0.40842 1.56144,-3.40169 -3.66812,-3.41737 -2.73391,-4.15076 -21.22123,16.6595 l -3.7298,4.19845 3.3198,-0.53462 c 3.07547,-0.49528 4.01743,0.12298 12.79904,8.40069 9.14542,8.62064 9.43671,9.02866 8.27144,11.58617 -1.01018,2.21715 -0.96588,2.65085 0.27078,2.65085 0.81321,0 1.47856,-0.39604 1.47856,-0.88008 z m 368.64745,-15.00879 c -0.12042,-2.35923 1.38694,-4.46759 8.22181,-11.5 4.6031,-4.73612 8.95794,-8.61113 9.67742,-8.61113 1.83712,0 5.63903,5.09064 4.99045,6.68206 -0.29542,0.72487 -0.81027,1.99294 -1.14412,2.81794 -1.09351,2.70231 2.32002,1.62975 5.0181,-1.57673 3.10092,-3.68523 3.2244,-4.68032 0.63335,-5.10372 C 578.66797,339.79339 561,322.64532 561,320.7271 c 0,-1.72961 -0.197,-1.71548 -4.46607,0.32029 -4.29747,2.04932 -4.53059,3.31479 -0.61066,3.31479 3.05177,0 9.07673,4.2396 9.07673,6.38705 0,0.66509 -3.73658,5.16207 -8.30351,9.99328 -8.16211,8.63445 -8.36644,8.77221 -12,8.09055 C 542.66342,348.45166 541,348.35277 541,348.61331 c 0,0.96395 10.54069,11.46623 11.64745,11.605 0.66013,0.0828 1.08483,-1.08303 1,-2.745 z m -342.6421,-11.86113 c 0.003,-0.4125 2.45408,-2.5191 5.44695,-4.68133 5.70928,-4.12472 6.30939,-5.83527 1.75893,-5.0136 -2.30131,0.41554 -3.22067,-0.19472 -6.08074,-4.03629 -2.77581,-3.72841 -3.15068,-4.78953 -2.12755,-6.02232 1.71202,-2.06285 2.18949,-1.97079 10.68291,2.05968 6.93277,3.28988 7.65558,3.44217 9.654,2.034 6.27725,-4.42321 6.99407,-5.59614 3.41015,-5.58002 -2.89056,0.013 -15.02943,-4.15754 -15.95836,-5.48281 -0.3896,-0.55582 -0.2771,-1.44185 0.25,-1.96895 1.60749,-1.60748 1.07107,-6.06025 -0.99755,-8.28066 -4.46983,-4.79779 -11.02232,-3.60825 -18.64672,3.38514 -2.14355,1.96615 -5.24737,4.64135 -6.89737,5.9449 l -3,2.37008 3.15393,0.0111 c 2.84203,0.01 3.92986,1.05865 11,10.60379 4.31534,5.82599 7.76691,10.88849 7.67016,11.25 -0.0968,0.36152 -0.48239,1.4448 -0.85699,2.4073 -0.39811,1.02293 -0.22116,1.75 0.42591,1.75 0.60885,0 1.1094,-0.3375 1.11234,-0.75 z m -7.91884,-25.447 C 201.38893,317.85683 200,315.43358 200,314.78019 c 0,-1.87313 4.87796,-4.59152 7.0195,-3.91182 2.12013,0.67291 5.98121,5.11476 5.97928,6.87867 -0.002,1.50335 -4.46702,6.61514 -5.77862,6.61514 -0.57593,0 -2.43607,-1.88865 -4.13365,-4.197 z m 331.4927,19.447 c -0.31884,-1.5125 0.35601,-6.35 1.49965,-10.75 5.02769,-19.34325 5.81352,-24.5 3.73354,-24.5 -0.79625,0 -7.26727,3.81537 -14.38006,8.47861 -7.11279,4.66323 -13.66999,8.48823 -14.57156,8.5 -0.90156,0.0118 -2.61051,-0.76611 -3.79764,-1.72861 -1.93637,-1.56996 -2.12781,-2.56593 -1.86079,-9.68102 0.29208,-7.78269 0.35109,-7.94525 3.1551,-8.69225 6.66223,-1.77484 8.68647,-7.84098 4.38758,-13.14852 -2.05506,-2.53725 -19.59004,-12.21653 -20.49395,-11.31262 -0.21431,0.21431 0.15768,1.26608 0.82665,2.33728 1.04783,1.67783 0.35552,3.56136 -4.99785,13.59737 -5.87836,11.02024 -6.79875,12.11802 -9.82988,11.72441 -2.24607,-0.29167 -1.31321,1.55561 1.5,2.97034 1.5125,0.76062 3.94447,2.18666 5.40437,3.16898 2.91278,1.9599 5.84563,2.35427 5.84563,0.78603 0,-0.55 -0.40186,-1 -0.89301,-1 -1.94573,0 -1.95347,-3.23295 -0.0166,-6.94883 2.88623,-5.53736 4.30236,-6.5156 6.39818,-4.41978 1.33315,1.33315 1.65011,3.2305 1.46749,8.78451 -0.31723,9.64784 -0.43527,9.29896 3.89331,11.50724 2.11713,1.08007 5.94602,3.56422 8.50865,5.52032 2.56263,1.9561 4.86918,3.55654 5.12567,3.55654 0.25649,0 0.20127,-1.3254 -0.12272,-2.94533 -0.50812,-2.5406 -0.1422,-3.21708 2.66287,-4.92295 l 3.25194,-1.97762 3.86213,2.55584 c 3.02393,2.00117 3.86209,3.19232 3.86209,5.48869 0,4.45021 -1.72266,7.02417 -4.17922,6.24449 -3.31344,-1.05165 -1.79489,1.21209 3.68499,5.49328 6.02462,4.70677 6.82522,4.87993 6.07344,1.3136 z M 526.5,318.76229 c -1.96733,-1.5112 -1.951,-1.57594 1,-3.96323 3.0225,-2.44515 5.5,-3.15961 5.5,-1.5861 0,2.209 -2.32209,7.14573 -3.34783,7.11742 -0.63369,-0.0175 -2.05217,-0.72313 -3.15217,-1.56809 z m -28.5,-22.129 c -2.78103,-1.05864 -2.8459,-2.60263 -0.31288,-7.44694 2.83303,-5.41807 5.36787,-6.21979 8.44558,-2.67116 2.15922,2.4896 2.32202,4.11458 0.7176,7.16273 -1.87027,3.55321 -4.75192,4.51548 -8.8503,2.95537 z m -251.65524,23.69686 c 2.9499,-1.38661 5.05776,-3.33943 6.63639,-6.14822 2.09878,-3.73427 2.19319,-4.45039 1.01751,-7.71797 -2.25954,-6.27999 -7.83589,-9.25476 -13.39004,-7.14308 -3.31581,1.26067 -8.60271,1.33113 -10.48362,0.13972 -1.99255,-1.26213 -1.68647,-5.95167 0.5,-7.66067 1.81454,-1.41829 4.43842,-1.39374 9.125,0.0854 2.77094,0.87453 2.90209,-0.49628 0.3491,-3.64908 -1.79837,-2.2209 -2.10849,-2.2745 -5.75,-0.99375 -6.19652,2.17936 -9.3491,5.7647 -9.3491,10.63246 0,3.01799 0.60923,4.69349 2.25,6.18795 4.24429,3.86579 5.94406,4.2579 13.1253,3.02781 7.87954,-1.34971 9.97211,-0.5458 10.42943,4.00668 0.57093,5.68335 -6.94225,9.18645 -12.24731,5.71045 -3.08649,-2.02235 -4.18949,-0.33997 -1.98397,3.02609 2.00466,3.05949 4.0926,3.16552 9.77131,0.49621 z m 20.71741,-12.00366 c 6.48455,-2.97456 7.27406,-3.47301 7.74662,-4.89069 0.30147,-0.90439 -0.20442,-1.08282 -1.71276,-0.6041 -1.93061,0.61276 -2.71607,-0.52959 -8.007,-11.64506 -5.37414,-11.29027 -5.73641,-12.47182 -4.31718,-14.08059 2.47235,-2.80254 0.67439,-3.17388 -4.22249,-0.87207 -2.49016,1.17051 -4.92737,2.1282 -5.41602,2.1282 -0.48865,0 -1.44865,0.675 -2.13334,1.5 -1.05022,1.26544 -0.85316,1.5 1.2602,1.5 2.64237,0 2.4773,-0.26679 10.70796,17.30645 3.01808,6.4439 3.1026,6.93661 1.58681,9.25 -1.94789,2.97285 -1.22676,3.03811 4.5072,0.40786 z M 472.62044,297.4435 c 1.16624,-2.43027 2.93339,-5.01312 3.927,-5.73966 2.28193,-1.6686 1.68011,-2.23869 -4.75597,-4.50524 -6.59616,-2.32292 -7.52726,-2.30694 -5.35632,0.0919 1.78302,1.97023 1.61614,4.17753 -0.66698,8.82167 -1.54951,3.15188 -5.57859,2.88875 -9.80594,-0.6404 -3.22688,-2.69391 -3.46223,-3.28871 -3.46223,-8.75 0,-17.8419 17.78094,-25.44454 23.6442,-10.1096 1.37083,3.5853 2.53555,3.48459 3.3648,-0.29096 0.79261,-3.60875 -0.41783,-5.36172 -5.48862,-7.94864 -14.66714,-7.48262 -29.00656,-0.0246 -29.01664,15.09171 -0.006,9.35225 4.98767,14.38497 17.27829,17.41257 7.26159,1.78877 7.94062,1.56326 10.33841,-3.43336 z m -175.67568,-0.96795 c 6.05521,-1.98172 7.55331,-3.80073 3.53417,-4.29122 -2.40871,-0.29397 -2.9813,-1.32822 -6.54511,-11.82215 -2.14801,-6.325 -3.91185,-11.9721 -3.91965,-12.54911 -0.008,-0.57701 1.59873,-1.63234 3.57006,-2.34518 3.29906,-1.19296 3.77612,-1.11581 5.99606,0.96972 3.15672,2.96558 3.79966,2.11046 2.21962,-2.95215 -1.37259,-4.39796 -2.21342,-4.89787 -4.72117,-2.80695 -0.86831,0.72398 -4.95374,2.38266 -9.07874,3.68595 -4.125,1.30329 -7.99972,2.73893 -8.61049,3.19033 -0.61076,0.45139 -3.08576,0.95073 -5.5,1.10965 -4.38837,0.28886 -4.38959,0.29002 -4.69701,4.49334 -0.16912,2.31242 0.0239,4.2044 0.429,4.2044 0.40507,0 2.17913,-1.575 3.94237,-3.5 2.29607,-2.50672 4.05549,-3.5 6.19968,-3.5 3.31951,0 3.34719,0.0473 7.6114,13 1.35801,4.125 2.7667,8.25979 3.13043,9.18842 0.4224,1.0784 -0.0914,2.3329 -1.42202,3.47224 -4.419,3.78367 -2.63105,3.88663 7.8614,0.45271 z M 315.75,290.69242 c 3.62806,-0.66078 4.42927,-2.33024 1.11833,-2.33024 -1.92014,0 -2.07682,-0.40894 -1.57891,-4.12108 0.71676,-5.34388 1.49138,-5.9996 7.33183,-6.20652 4.17255,-0.14783 5.00764,0.14827 5.85953,2.0776 0.54641,1.2375 1.33677,2.25 1.75635,2.25 1.47739,0 0.74179,2.91242 -0.9788,3.87531 -2.84905,1.59441 -0.47724,2.60563 3.0878,1.31649 1.81273,-0.65549 4.69986,-1.1918 6.41585,-1.1918 3.92482,0 5.11488,-1.71612 2.00894,-2.89699 -1.44525,-0.54949 -5.79798,-6.12843 -11.31017,-14.49639 -5.40869,-8.21083 -9.52799,-13.50457 -10.39172,-13.35448 -1.54561,0.26859 -2.87184,5.6615 -5.47122,22.24786 -1.1822,7.54349 -2.06224,10.40786 -3.58249,11.6603 -2.65815,2.18988 -2.5571,3.23081 0.23468,2.41741 1.2375,-0.36055 3.7125,-0.92191 5.5,-1.24747 z M 317,272.94397 c 0,-5.95757 2.55697,-7.29466 5.24566,-2.74306 1.93626,3.27782 0.86132,5.16127 -2.94566,5.16127 -1.76592,0 -2.3,-0.56152 -2.3,-2.41821 z m 101.28212,14.05623 c 4.87729,-2.06434 6.99061,-4.99773 6.99061,-9.7033 0,-4.65876 -1.29195,-6.30047 -8.83144,-11.22228 -3.99664,-2.60902 -5.00071,-3.83919 -5.25209,-6.43476 -0.2662,-2.74855 0.0673,-3.30394 2.32374,-3.87028 3.43507,-0.86215 7.22422,0.92163 8.6623,4.07787 0.63019,1.3831 1.47107,2.51473 1.86864,2.51473 1.22256,0 1.90522,-4.2266 0.96608,-5.98138 -1.20751,-2.25626 -8.20705,-4.43695 -11.5492,-3.59813 -4.10603,1.03055 -8.46076,5.88201 -8.46076,9.42586 0,3.54473 3.86073,8.52987 8.36912,10.80654 4.44598,2.24517 7.63088,5.39052 7.63088,7.53612 0,1.01222 -1.42252,2.70547 -3.16115,3.7628 -2.74224,1.66766 -3.56877,1.75609 -6.23702,0.66733 -1.81034,-0.73869 -3.87703,-2.77647 -5.02312,-4.95283 -2.24092,-4.25539 -3.88247,-3.56327 -3.40155,1.43418 0.28399,2.95115 0.8643,3.56152 4.82284,5.07278 5.56853,2.1259 6.28129,2.15812 10.28212,0.46475 z M 369,283.28871 c 0,-0.50959 -0.65917,-0.92653 -1.46482,-0.92653 -2.60651,0 -3.62502,-3.82538 -4.23184,-15.89422 l -0.5951,-11.83596 3.39588,-0.55792 c 2.74123,-0.45037 3.82038,-0.0908 5.59791,1.86509 1.21112,1.33266 2.44862,2.42301 2.75,2.42301 0.30139,0 0.54797,-2.25 0.54797,-5 0,-2.75 -0.45,-5 -1,-5 -0.55,0 -1,0.37262 -1,0.82803 0,1.29127 -26.2018,3.37017 -27.39815,2.17382 -1.52514,-1.52514 -2.17543,-1.23315 -3.44133,1.54521 -1.15047,2.52499 -1.5802,6.45294 -0.70597,6.45294 0.25,0 1.57954,-1.125 2.95454,-2.5 1.83003,-1.83002 3.56772,-2.5 6.48418,-2.5 3.92804,0 3.9925,0.0599 4.57429,4.25 0.32457,2.3375 0.68964,8.28382 0.81128,13.21404 0.2194,8.89269 0.19911,8.97479 -2.54835,10.31392 -1.52324,0.74243 -2.58011,1.65862 -2.34861,2.03596 0.6352,1.0354 17.61812,0.18 17.61812,-0.88739 z m 27,0.1901 c 0,-0.48585 -0.96146,-1.13479 -2.13658,-1.44209 -1.80547,-0.47214 -2.03793,-1.052 -1.5,-3.74163 0.35012,-1.7506 0.63658,-7.38345 0.63658,-12.51744 0,-8.88985 0.13052,-9.45555 2.73978,-11.875 1.50688,-1.39726 2.51938,-2.58408 2.25,-2.63739 C 394.29719,250.53449 383,250.47868 383,251.1912 c 0,0.51574 0.9,1.17308 2,1.46073 2.39695,0.62682 2.5792,4.3075 0.89832,18.14253 -0.80213,6.6022 -1.60627,9.5098 -2.95748,10.69358 -1.02068,0.89422 -1.57493,1.90672 -1.23165,2.25 C 382.68321,284.71206 396,284.4705 396,283.47881 z"
       id="path3271"
       inkscape:connector-curvature="0" />
  </g>
</svg>
