<?xml version="1.0" encoding="UTF-8" standalone="no"?>
<!-- Created with Inkscape (http://www.inkscape.org/) -->

<svg
   xmlns:dc="http://purl.org/dc/elements/1.1/"
   xmlns:cc="http://creativecommons.org/ns#"
   xmlns:rdf="http://www.w3.org/1999/02/22-rdf-syntax-ns#"
   xmlns:svg="http://www.w3.org/2000/svg"
   xmlns="http://www.w3.org/2000/svg"
   xmlns:sodipodi="http://sodipodi.sourceforge.net/DTD/sodipodi-0.dtd"
   xmlns:inkscape="http://www.inkscape.org/namespaces/inkscape"
   id="svg3045"
   version="1.1"
   inkscape:version="0.48.1 r9760"
   width="822.4"
   height="96.8"
   xml:space="preserve"
   sodipodi:docname="old_logo_first_ligne.pdf"><metadata
     id="metadata3051"><rdf:RDF><cc:Work
         rdf:about=""><dc:format>image/svg+xml</dc:format><dc:type
           rdf:resource="http://purl.org/dc/dcmitype/StillImage" /><dc:title></dc:title></cc:Work></rdf:RDF></metadata><defs
     id="defs3049" /><sodipodi:namedview
     pagecolor="#ffffff"
     bordercolor="#666666"
     borderopacity="1"
     objecttolerance="10"
     gridtolerance="10"
     guidetolerance="10"
     inkscape:pageopacity="0"
     inkscape:pageshadow="2"
     inkscape:window-width="1510"
     inkscape:window-height="960"
     id="namedview3047"
     showgrid="false"
     inkscape:zoom="1.1308365"
     inkscape:cx="433.36009"
     inkscape:cy="184.02849"
     inkscape:window-x="384"
     inkscape:window-y="63"
     inkscape:window-maximized="0"
     inkscape:current-layer="g3053" /><g
     id="g3053"
     inkscape:groupmode="layer"
     inkscape:label="old_logo_first_ligne"
     transform="matrix(1.25,0,0,-1.25,0,96.8)"><path
       inkscape:connector-curvature="0"
       d="m 408.36952,23.244713 c -8.6031,0 -13.34247,5.506432 -13.34247,15.501396 0,9.567282 5.12007,15.278861 13.69444,15.278861 3.18584,0 6.05176,-0.547901 8.5196,-1.628888 l 0.23911,-0.106049 -0.89164,-3.590812 -0.30255,0.08498 c -2.55535,0.711456 -4.7634,1.324334 -7.65069,1.324334 -4.47687,0 -8.62112,-1.304874 -8.62112,-10.783748 l 0,-0.845653 c 0,-10.169865 4.2017,-11.541542 8.31055,-11.541542 2.79713,0 4.28185,0.557618 5.70312,1.462424 l 0,7.542225 -5.34646,0 0,3.60347 9.93888,0 0,-16.034021 -2.02505,0 -1.11938,3.065556 -1.83537,-2.390899 -0.0821,-0.02892 c -1.66439,-0.631263 -3.26465,-0.912701 -5.18883,-0.912701"
       style="fill:#3e3e40;fill-opacity:1;fill-rule:nonzero;stroke:none"
       id="path4126" /><path
       inkscape:connector-curvature="0"
       d="m 452.52708,23.866767 -5.27033,0 -6.98146,11.762497 -5.79462,0 0,-11.762497 -4.76739,0 0,29.622961 11.79627,0 c 6.44515,0 9.85273,-3.064256 9.85273,-8.862898 0,-3.275753 -0.83888,-7.63512 -7.80497,-8.528111 l 2.23075,-1.031024 6.73902,-11.200928 m -18.04641,25.797219 0,-10.607533 6.23344,0 c 4.47819,0 5.70311,1.159701 5.70311,5.393625 l 0,0.355863 c 0,4.221263 -1.31374,4.858045 -5.83537,4.858045 l -6.10118,0"
       style="fill:#3e3e40;fill-opacity:1;fill-rule:nonzero;stroke:none"
       id="path4128" /><path
       inkscape:connector-curvature="0"
       d="m 481.58565,23.866767 -19.48503,0 0,29.622961 18.73365,0 0,-3.914624 -13.96424,0 0,-8.604063 11.79894,0 0,-3.692622 -11.79894,0 0,-9.538603 14.71562,0 0,-3.873049"
       style="fill:#3e3e40;fill-opacity:1;fill-rule:nonzero;stroke:none"
       id="path4130" /><path
       inkscape:connector-curvature="0"
       d="m 514.45989,23.866767 -4.89763,0 -12.37401,20.376324 -1.66305,4.137367 0.46151,-4.881749 0.002,-19.631942 -4.23777,0 0,29.622961 5.07531,0 0.0901,-0.148607 11.71012,-19.378116 2.1633,-4.951466 -0.56638,5.828633 -0.002,18.649556 4.2371,0 0,-29.622961"
       style="fill:#3e3e40;fill-opacity:1;fill-rule:nonzero;stroke:none"
       id="path4132" /><path
       inkscape:connector-curvature="0"
       d="m 538.05781,23.244713 c -8.42345,0 -13.25363,5.649781 -13.25363,15.501396 0,9.424467 5.09669,15.278861 13.29771,15.278861 8.14894,0 13.21024,-5.819448 13.21024,-15.189442 0,-9.908155 -4.83021,-15.590815 -13.25432,-15.590815 m -0.0447,26.910343 c -5.65503,0 -8.17899,-3.340933 -8.17899,-10.830276 l 0,-0.800942 c 0,-10.259292 3.97462,-11.675679 8.26781,-11.675679 5.73184,0 8.17632,3.532451 8.17632,11.809809 l 0,0.846932 c 0,7.564084 -2.39506,10.650156 -8.26514,10.650156"
       style="fill:#3e3e40;fill-opacity:1;fill-rule:nonzero;stroke:none"
       id="path4134" /><path
       inkscape:connector-curvature="0"
       d="m 573.40593,23.866767 -11.75156,0 0,29.622961 11.00015,0 c 5.81066,0 9.27904,-2.97955 9.27904,-7.970985 0,-3.757599 -1.93758,-5.313901 -3.93056,-6.137468 3.25599,-1.002072 5.16749,-3.607377 5.16749,-7.13981 0,-5.399885 -3.46768,-8.374698 -9.76456,-8.374698 m -7.02958,13.501073 0,-9.939709 6.27817,0 c 4.16433,0 5.57022,1.203341 5.57022,4.768624 l 0,0.357748 c 0,3.733628 -1.23757,4.813337 -5.52678,4.813337 l -6.32161,0 m 0,12.341395 0,-8.959926 5.96897,0 c 3.62531,0 4.73135,1.030554 4.73135,4.413032 l 0,0.312971 c 0,3.283093 -1.16952,4.233923 -5.21624,4.233923 l -5.48408,0"
       style="fill:#3e3e40;fill-opacity:1;fill-rule:nonzero;stroke:none"
       id="path4136" /><path
       inkscape:connector-curvature="0"
       d="m 611.93386,23.866767 -18.46519,0 0,29.622961 4.81148,0 0,-25.749912 13.65371,0 0,-3.873049"
       style="fill:#3e3e40;fill-opacity:1;fill-rule:nonzero;stroke:none"
       id="path4138" /><path
       inkscape:connector-curvature="0"
       d="m 641.01045,23.866767 -19.48369,0 0,29.622961 18.73235,0 0,-3.914624 -13.96426,0 0,-8.604063 11.79896,0 0,-3.692622 -11.79896,0 0,-9.538603 14.71561,0 0,-3.873049"
       style="fill:#3e3e40;fill-opacity:1;fill-rule:nonzero;stroke:none"
       id="path4140" /><path
       inkscape:connector-curvature="0"
       d="M 26.758115,23.199998 C 19.778113,23.199998 16.8,26.825804 16.8,35.318852 l 0,17.912581 4.777241,0 0,-19.195572 c 0,-6.172426 1.761828,-7.168504 5.969254,-7.168504 3.274797,0 4.981797,0.799333 6.760051,2.188367 l 0,24.175709 4.734478,0 0,-29.412536 -2.884486,0 -1.17976,3.13184 -1.514245,-2.284376 c -1.449526,-0.958724 -3.769107,-1.466363 -6.704418,-1.466363"
       style="fill:#646567;fill-opacity:1;fill-rule:nonzero;stroke:none"
       id="path4142" /><path
       inkscape:connector-curvature="0"
       d="m 73.745222,23.818897 -4.863853,0 -12.287649,20.230608 -1.649622,4.10895 0.457905,-4.848889 0.0013,-19.490669 -4.207176,0 0,29.412536 5.038899,0 11.717336,-19.389427 2.147136,-4.915158 -0.560895,5.785792 -0.002,18.518793 4.208251,0 0,-29.412536"
       style="fill:#646567;fill-opacity:1;fill-rule:nonzero;stroke:none"
       id="path4144" /><path
       inkscape:connector-curvature="0"
       d="m 86.030861,23.818897 4.821595,0 0,29.412496 -4.821595,0 0,-29.412496 z"
       style="fill:#646567;fill-opacity:1;fill-rule:nonzero;stroke:none"
       id="path4146" /><path
       inkscape:connector-curvature="0"
       d="m 115.85751,23.775235 -4.72532,0 -10.66555,29.456198 5.03924,0 7.3548,-21.305564 0.84689,-4.063221 0.80482,4.021137 7.36615,21.347648 4.51093,0 -10.53196,-29.456198"
       style="fill:#646567;fill-opacity:1;fill-rule:nonzero;stroke:none"
       id="path4148" /><path
       inkscape:connector-curvature="0"
       d="m 155.17155,23.818897 -19.34478,0 0,29.412536 18.60074,0 0,-3.887488 -13.86539,0 0,-8.543327 11.71413,0 0,-3.664746 -11.71413,0 0,-9.473127 14.60943,0 0,-3.843848"
       style="fill:#646567;fill-opacity:1;fill-rule:nonzero;stroke:none"
       id="path4150" /><path
       inkscape:connector-curvature="0"
       d="m 187.92022,23.818897 -5.23425,0 -6.93068,11.678863 -5.75456,0 0,-11.678863 -4.734,0 0,29.412536 11.71346,0 c 6.39971,0 9.78192,-3.043449 9.78192,-8.799536 0,-3.253063 -0.83086,-7.581388 -7.74887,-8.468587 l 2.21472,-1.023954 6.69226,-11.120459 m -17.9195,25.61366 0,-10.53259 6.18868,0 c 4.44547,0 5.66305,1.151823 5.66305,5.355715 l 0,0.351689 c 0,4.19258 -1.30641,4.825186 -5.7953,4.825186 l -6.05643,0"
       style="fill:#646567;fill-opacity:1;fill-rule:nonzero;stroke:none"
       id="path4152" /><path
       inkscape:connector-curvature="0"
       d="m 205.40492,23.199998 c -4.58439,0 -7.24728,1.065777 -9.38585,2.063957 l -0.25448,0.117309 1.2109,3.391448 0.28986,-0.113627 c 2.36968,-0.928474 4.57104,-1.791728 7.74419,-1.791728 4.66655,0 6.32092,1.26252 6.32092,4.823111 0,2.786704 -0.84089,3.883042 -5.81065,4.874341 -6.24745,1.227305 -9.63632,3.00406 -9.63632,8.883165 0,5.284746 3.64734,8.313987 10.00365,8.313987 3.91784,0 6.27884,-0.864575 8.07145,-1.70915 l 0.22443,-0.106791 -0.83754,-3.484288 -0.82819,0.266712 c -2.23743,0.716707 -3.7148,1.191213 -6.80579,1.191213 -4.08415,0 -5.53147,-1.100244 -5.53147,-4.20443 0,-2.820978 0.5323,-3.535598 6.16328,-4.699474 5.64835,-1.085768 9.41191,-3.042912 9.41191,-9.05911 0,-5.647682 -3.67606,-8.756643 -10.35029,-8.756643"
       style="fill:#646567;fill-opacity:1;fill-rule:nonzero;stroke:none"
       id="path4154" /><path
       inkscape:connector-curvature="0"
       d="m 226.2017,23.818897 4.82212,0 0,29.412496 -4.82212,0 0,-29.412496 z"
       style="fill:#646567;fill-opacity:1;fill-rule:nonzero;stroke:none"
       id="path4156" /><path
       inkscape:connector-curvature="0"
       d="m 253.96858,23.818897 -4.73401,0 0,25.525048 -8.64451,0 0,3.887488 22.06577,0 0,-3.887488 -8.68725,0 0,-25.525048"
       style="fill:#646567;fill-opacity:1;fill-rule:nonzero;stroke:none"
       id="path4158" /><path
       inkscape:connector-curvature="0"
       d="m 327.1086,23.818897 -10.57202,0 0,29.412536 11.01084,0 c 8.23575,0 12.58973,-5.061935 12.58973,-14.639184 0,-9.94026 -4.26249,-14.773352 -13.02855,-14.773352 m -5.79594,25.568951 0,-21.946041 5.00583,0 c 6.22141,0 8.8215,1.507921 8.8215,10.840031 l 0,0.796969 c 0,8.876836 -2.62682,10.309041 -8.91033,10.309041 l -4.917,0"
       style="fill:#646567;fill-opacity:1;fill-rule:nonzero;stroke:none"
       id="path4160" /><path
       inkscape:connector-curvature="0"
       d="m 369.75074,23.818897 -19.34346,0 0,29.412536 18.59809,0 0,-3.887488 -13.86541,0 0,-8.543327 11.71481,0 0,-3.664746 -11.71481,0 0,-9.473127 14.61078,0 0,-3.843848"
       style="fill:#646567;fill-opacity:1;fill-rule:nonzero;stroke:none"
       id="path4162" /><path
       inkscape:connector-curvature="0"
       d="m 291.43789,23.818897 -19.3461,0 0,29.412536 6.13858,0 1.3331,3.144183 5.50609,0 -1.33244,-3.144183 6.95408,0 0,-3.887488 -13.86608,0 0,-8.543327 11.7168,0 0,-3.664746 -11.7168,0 0,-9.473127 14.61277,0 0,-3.843848"
       style="fill:#646567;fill-opacity:1;fill-rule:nonzero;stroke:none"
       id="path4164" /></g></svg>